ISO-10303-21;
HEADER;
/* Generated by software containing ST-Developer
 * from STEP Tools, Inc. (www.steptools.com) 
 */

FILE_DESCRIPTION(
/* description */ (''),
/* implementation_level */ '2;1');

FILE_NAME(
/* name */ 
'M:\\2 Sensorkomponenten\\4 Sensor Aufbau Herstellung\\CAD Zeichnungen
\\Compact Vorlage.stp',
/* time_stamp */ '2020-09-18T14:56:29+02:00',
/* author */ ('station1'),
/* organization */ (''),
/* preprocessor_version */ 'ST-DEVELOPER v18.1',
/* originating_system */ 'Autodesk Inventor 2021',
/* authorisation */ '');

FILE_SCHEMA (('AUTOMOTIVE_DESIGN { 1 0 10303 214 3 1 1 }'));
ENDSEC;

DATA;
#10=MECHANICAL_DESIGN_GEOMETRIC_PRESENTATION_REPRESENTATION('',(#284,#285,
#286,#287,#288,#289,#290,#291,#292,#293,#294,#295,#296,#297,#298,#299,#300,
#301,#302,#303,#304),#592);
#11=SHAPE_REPRESENTATION_RELATIONSHIP('SRR','None',#599,#12);
#12=ADVANCED_BREP_SHAPE_REPRESENTATION('',(#13),#591);
#13=MANIFOLD_SOLID_BREP('Volumenk\X\F6rper1',#325);
#14=FACE_BOUND('',#66,.T.);
#15=FACE_BOUND('',#67,.T.);
#16=FACE_BOUND('',#68,.T.);
#17=FACE_BOUND('',#69,.T.);
#18=FACE_BOUND('',#74,.T.);
#19=PLANE('',#351);
#20=PLANE('',#358);
#21=PLANE('',#365);
#22=PLANE('',#372);
#23=PLANE('',#377);
#24=PLANE('',#388);
#25=PLANE('',#391);
#26=CYLINDRICAL_SURFACE('',#349,0.6);
#27=CYLINDRICAL_SURFACE('',#356,0.6);
#28=CYLINDRICAL_SURFACE('',#363,0.6);
#29=CYLINDRICAL_SURFACE('',#370,0.6);
#30=CYLINDRICAL_SURFACE('',#378,12.);
#31=CYLINDRICAL_SURFACE('',#385,16.);
#32=FACE_OUTER_BOUND('',#52,.T.);
#33=FACE_OUTER_BOUND('',#53,.T.);
#34=FACE_OUTER_BOUND('',#54,.T.);
#35=FACE_OUTER_BOUND('',#55,.T.);
#36=FACE_OUTER_BOUND('',#56,.T.);
#37=FACE_OUTER_BOUND('',#57,.T.);
#38=FACE_OUTER_BOUND('',#58,.T.);
#39=FACE_OUTER_BOUND('',#59,.T.);
#40=FACE_OUTER_BOUND('',#60,.T.);
#41=FACE_OUTER_BOUND('',#61,.T.);
#42=FACE_OUTER_BOUND('',#62,.T.);
#43=FACE_OUTER_BOUND('',#63,.T.);
#44=FACE_OUTER_BOUND('',#64,.T.);
#45=FACE_OUTER_BOUND('',#65,.T.);
#46=FACE_OUTER_BOUND('',#70,.T.);
#47=FACE_OUTER_BOUND('',#71,.T.);
#48=FACE_OUTER_BOUND('',#72,.T.);
#49=FACE_OUTER_BOUND('',#73,.T.);
#50=FACE_OUTER_BOUND('',#75,.T.);
#51=FACE_OUTER_BOUND('',#76,.T.);
#52=EDGE_LOOP('',(#197,#198,#199,#200,#201));
#53=EDGE_LOOP('',(#202,#203,#204,#205,#206));
#54=EDGE_LOOP('',(#207));
#55=EDGE_LOOP('',(#208,#209,#210,#211,#212));
#56=EDGE_LOOP('',(#213,#214,#215,#216,#217));
#57=EDGE_LOOP('',(#218));
#58=EDGE_LOOP('',(#219,#220,#221,#222,#223));
#59=EDGE_LOOP('',(#224,#225,#226,#227,#228));
#60=EDGE_LOOP('',(#229));
#61=EDGE_LOOP('',(#230,#231,#232,#233,#234));
#62=EDGE_LOOP('',(#235,#236,#237,#238,#239));
#63=EDGE_LOOP('',(#240));
#64=EDGE_LOOP('',(#241,#242,#243,#244,#245));
#65=EDGE_LOOP('',(#246));
#66=EDGE_LOOP('',(#247));
#67=EDGE_LOOP('',(#248));
#68=EDGE_LOOP('',(#249));
#69=EDGE_LOOP('',(#250));
#70=EDGE_LOOP('',(#251,#252,#253,#254,#255,#256));
#71=EDGE_LOOP('',(#257,#258,#259,#260,#261));
#72=EDGE_LOOP('',(#262,#263,#264,#265,#266,#267));
#73=EDGE_LOOP('',(#268));
#74=EDGE_LOOP('',(#269,#270));
#75=EDGE_LOOP('',(#271,#272,#273,#274,#275));
#76=EDGE_LOOP('',(#276));
#77=LINE('',#506,#90);
#78=LINE('',#512,#91);
#79=LINE('',#519,#92);
#80=LINE('',#525,#93);
#81=LINE('',#532,#94);
#82=LINE('',#538,#95);
#83=LINE('',#545,#96);
#84=LINE('',#551,#97);
#85=LINE('',#558,#98);
#86=LINE('',#565,#99);
#87=LINE('',#575,#100);
#88=LINE('',#582,#101);
#89=LINE('',#587,#102);
#90=VECTOR('',#398,0.5);
#91=VECTOR('',#405,0.6);
#92=VECTOR('',#414,0.5);
#93=VECTOR('',#421,0.6);
#94=VECTOR('',#430,0.5);
#95=VECTOR('',#437,0.6);
#96=VECTOR('',#446,0.5);
#97=VECTOR('',#453,0.6);
#98=VECTOR('',#462,11.75);
#99=VECTOR('',#471,12.);
#100=VECTOR('',#482,15.5);
#101=VECTOR('',#491,16.);
#102=VECTOR('',#498,15.5);
#103=CIRCLE('',#346,0.4);
#104=CIRCLE('',#347,0.6);
#105=CIRCLE('',#348,0.6);
#106=CIRCLE('',#350,0.6);
#107=CIRCLE('',#353,0.4);
#108=CIRCLE('',#354,0.6);
#109=CIRCLE('',#355,0.6);
#110=CIRCLE('',#357,0.6);
#111=CIRCLE('',#360,0.4);
#112=CIRCLE('',#361,0.6);
#113=CIRCLE('',#362,0.6);
#114=CIRCLE('',#364,0.6);
#115=CIRCLE('',#367,0.4);
#116=CIRCLE('',#368,0.6);
#117=CIRCLE('',#369,0.6);
#118=CIRCLE('',#371,0.6);
#119=CIRCLE('',#374,11.5);
#120=CIRCLE('',#375,12.);
#121=CIRCLE('',#376,12.);
#122=CIRCLE('',#379,12.);
#123=CIRCLE('',#380,12.);
#124=CIRCLE('',#382,16.);
#125=CIRCLE('',#383,16.);
#126=CIRCLE('',#384,15.);
#127=CIRCLE('',#386,16.);
#128=CIRCLE('',#387,16.);
#129=CIRCLE('',#390,15.);
#130=VERTEX_POINT('',#503);
#131=VERTEX_POINT('',#505);
#132=VERTEX_POINT('',#507);
#133=VERTEX_POINT('',#511);
#134=VERTEX_POINT('',#516);
#135=VERTEX_POINT('',#518);
#136=VERTEX_POINT('',#520);
#137=VERTEX_POINT('',#524);
#138=VERTEX_POINT('',#529);
#139=VERTEX_POINT('',#531);
#140=VERTEX_POINT('',#533);
#141=VERTEX_POINT('',#537);
#142=VERTEX_POINT('',#542);
#143=VERTEX_POINT('',#544);
#144=VERTEX_POINT('',#546);
#145=VERTEX_POINT('',#550);
#146=VERTEX_POINT('',#555);
#147=VERTEX_POINT('',#557);
#148=VERTEX_POINT('',#559);
#149=VERTEX_POINT('',#564);
#150=VERTEX_POINT('',#566);
#151=VERTEX_POINT('',#570);
#152=VERTEX_POINT('',#571);
#153=VERTEX_POINT('',#574);
#154=VERTEX_POINT('',#578);
#155=VERTEX_POINT('',#579);
#156=VERTEX_POINT('',#585);
#157=EDGE_CURVE('',#130,#130,#103,.T.);
#158=EDGE_CURVE('',#130,#131,#77,.T.);
#159=EDGE_CURVE('',#131,#132,#104,.T.);
#160=EDGE_CURVE('',#132,#131,#105,.T.);
#161=EDGE_CURVE('',#132,#133,#78,.T.);
#162=EDGE_CURVE('',#133,#133,#106,.T.);
#163=EDGE_CURVE('',#134,#134,#107,.T.);
#164=EDGE_CURVE('',#134,#135,#79,.T.);
#165=EDGE_CURVE('',#135,#136,#108,.T.);
#166=EDGE_CURVE('',#136,#135,#109,.T.);
#167=EDGE_CURVE('',#136,#137,#80,.T.);
#168=EDGE_CURVE('',#137,#137,#110,.T.);
#169=EDGE_CURVE('',#138,#138,#111,.T.);
#170=EDGE_CURVE('',#138,#139,#81,.T.);
#171=EDGE_CURVE('',#139,#140,#112,.T.);
#172=EDGE_CURVE('',#140,#139,#113,.T.);
#173=EDGE_CURVE('',#140,#141,#82,.T.);
#174=EDGE_CURVE('',#141,#141,#114,.T.);
#175=EDGE_CURVE('',#142,#142,#115,.T.);
#176=EDGE_CURVE('',#142,#143,#83,.T.);
#177=EDGE_CURVE('',#143,#144,#116,.T.);
#178=EDGE_CURVE('',#144,#143,#117,.T.);
#179=EDGE_CURVE('',#144,#145,#84,.T.);
#180=EDGE_CURVE('',#145,#145,#118,.T.);
#181=EDGE_CURVE('',#146,#146,#119,.T.);
#182=EDGE_CURVE('',#146,#147,#85,.T.);
#183=EDGE_CURVE('',#147,#148,#120,.T.);
#184=EDGE_CURVE('',#148,#147,#121,.T.);
#185=EDGE_CURVE('',#148,#149,#86,.T.);
#186=EDGE_CURVE('',#150,#149,#122,.T.);
#187=EDGE_CURVE('',#149,#150,#123,.T.);
#188=EDGE_CURVE('',#151,#152,#124,.T.);
#189=EDGE_CURVE('',#152,#151,#125,.T.);
#190=EDGE_CURVE('',#151,#153,#87,.T.);
#191=EDGE_CURVE('',#153,#153,#126,.T.);
#192=EDGE_CURVE('',#154,#155,#127,.T.);
#193=EDGE_CURVE('',#155,#154,#128,.T.);
#194=EDGE_CURVE('',#155,#152,#88,.T.);
#195=EDGE_CURVE('',#156,#156,#129,.T.);
#196=EDGE_CURVE('',#156,#154,#89,.T.);
#197=ORIENTED_EDGE('',*,*,#157,.T.);
#198=ORIENTED_EDGE('',*,*,#158,.T.);
#199=ORIENTED_EDGE('',*,*,#159,.T.);
#200=ORIENTED_EDGE('',*,*,#160,.T.);
#201=ORIENTED_EDGE('',*,*,#158,.F.);
#202=ORIENTED_EDGE('',*,*,#159,.F.);
#203=ORIENTED_EDGE('',*,*,#160,.F.);
#204=ORIENTED_EDGE('',*,*,#161,.T.);
#205=ORIENTED_EDGE('',*,*,#162,.T.);
#206=ORIENTED_EDGE('',*,*,#161,.F.);
#207=ORIENTED_EDGE('',*,*,#157,.F.);
#208=ORIENTED_EDGE('',*,*,#163,.T.);
#209=ORIENTED_EDGE('',*,*,#164,.T.);
#210=ORIENTED_EDGE('',*,*,#165,.T.);
#211=ORIENTED_EDGE('',*,*,#166,.T.);
#212=ORIENTED_EDGE('',*,*,#164,.F.);
#213=ORIENTED_EDGE('',*,*,#165,.F.);
#214=ORIENTED_EDGE('',*,*,#166,.F.);
#215=ORIENTED_EDGE('',*,*,#167,.T.);
#216=ORIENTED_EDGE('',*,*,#168,.T.);
#217=ORIENTED_EDGE('',*,*,#167,.F.);
#218=ORIENTED_EDGE('',*,*,#163,.F.);
#219=ORIENTED_EDGE('',*,*,#169,.T.);
#220=ORIENTED_EDGE('',*,*,#170,.T.);
#221=ORIENTED_EDGE('',*,*,#171,.T.);
#222=ORIENTED_EDGE('',*,*,#172,.T.);
#223=ORIENTED_EDGE('',*,*,#170,.F.);
#224=ORIENTED_EDGE('',*,*,#171,.F.);
#225=ORIENTED_EDGE('',*,*,#172,.F.);
#226=ORIENTED_EDGE('',*,*,#173,.T.);
#227=ORIENTED_EDGE('',*,*,#174,.T.);
#228=ORIENTED_EDGE('',*,*,#173,.F.);
#229=ORIENTED_EDGE('',*,*,#169,.F.);
#230=ORIENTED_EDGE('',*,*,#175,.T.);
#231=ORIENTED_EDGE('',*,*,#176,.T.);
#232=ORIENTED_EDGE('',*,*,#177,.T.);
#233=ORIENTED_EDGE('',*,*,#178,.T.);
#234=ORIENTED_EDGE('',*,*,#176,.F.);
#235=ORIENTED_EDGE('',*,*,#177,.F.);
#236=ORIENTED_EDGE('',*,*,#178,.F.);
#237=ORIENTED_EDGE('',*,*,#179,.T.);
#238=ORIENTED_EDGE('',*,*,#180,.T.);
#239=ORIENTED_EDGE('',*,*,#179,.F.);
#240=ORIENTED_EDGE('',*,*,#175,.F.);
#241=ORIENTED_EDGE('',*,*,#181,.T.);
#242=ORIENTED_EDGE('',*,*,#182,.T.);
#243=ORIENTED_EDGE('',*,*,#183,.T.);
#244=ORIENTED_EDGE('',*,*,#184,.T.);
#245=ORIENTED_EDGE('',*,*,#182,.F.);
#246=ORIENTED_EDGE('',*,*,#181,.F.);
#247=ORIENTED_EDGE('',*,*,#180,.F.);
#248=ORIENTED_EDGE('',*,*,#174,.F.);
#249=ORIENTED_EDGE('',*,*,#162,.F.);
#250=ORIENTED_EDGE('',*,*,#168,.F.);
#251=ORIENTED_EDGE('',*,*,#183,.F.);
#252=ORIENTED_EDGE('',*,*,#184,.F.);
#253=ORIENTED_EDGE('',*,*,#185,.T.);
#254=ORIENTED_EDGE('',*,*,#186,.F.);
#255=ORIENTED_EDGE('',*,*,#187,.F.);
#256=ORIENTED_EDGE('',*,*,#185,.F.);
#257=ORIENTED_EDGE('',*,*,#188,.T.);
#258=ORIENTED_EDGE('',*,*,#189,.T.);
#259=ORIENTED_EDGE('',*,*,#190,.T.);
#260=ORIENTED_EDGE('',*,*,#191,.T.);
#261=ORIENTED_EDGE('',*,*,#190,.F.);
#262=ORIENTED_EDGE('',*,*,#192,.F.);
#263=ORIENTED_EDGE('',*,*,#193,.F.);
#264=ORIENTED_EDGE('',*,*,#194,.T.);
#265=ORIENTED_EDGE('',*,*,#188,.F.);
#266=ORIENTED_EDGE('',*,*,#189,.F.);
#267=ORIENTED_EDGE('',*,*,#194,.F.);
#268=ORIENTED_EDGE('',*,*,#191,.F.);
#269=ORIENTED_EDGE('',*,*,#186,.T.);
#270=ORIENTED_EDGE('',*,*,#187,.T.);
#271=ORIENTED_EDGE('',*,*,#195,.T.);
#272=ORIENTED_EDGE('',*,*,#196,.T.);
#273=ORIENTED_EDGE('',*,*,#192,.T.);
#274=ORIENTED_EDGE('',*,*,#193,.T.);
#275=ORIENTED_EDGE('',*,*,#196,.F.);
#276=ORIENTED_EDGE('',*,*,#195,.F.);
#277=CONICAL_SURFACE('',#345,0.5,0.785398163397448);
#278=CONICAL_SURFACE('',#352,0.5,0.785398163397448);
#279=CONICAL_SURFACE('',#359,0.5,0.785398163397448);
#280=CONICAL_SURFACE('',#366,0.5,0.785398163397448);
#281=CONICAL_SURFACE('',#373,11.75,0.785398163397449);
#282=CONICAL_SURFACE('',#381,15.5,0.785398163397449);
#283=CONICAL_SURFACE('',#389,15.5,0.785398163397448);
#284=STYLED_ITEM('',(#609),#305);
#285=STYLED_ITEM('',(#609),#306);
#286=STYLED_ITEM('',(#609),#307);
#287=STYLED_ITEM('',(#609),#308);
#288=STYLED_ITEM('',(#609),#309);
#289=STYLED_ITEM('',(#609),#310);
#290=STYLED_ITEM('',(#609),#311);
#291=STYLED_ITEM('',(#609),#312);
#292=STYLED_ITEM('',(#609),#313);
#293=STYLED_ITEM('',(#609),#314);
#294=STYLED_ITEM('',(#609),#315);
#295=STYLED_ITEM('',(#609),#316);
#296=STYLED_ITEM('',(#610),#317);
#297=STYLED_ITEM('',(#610),#318);
#298=STYLED_ITEM('',(#610),#319);
#299=STYLED_ITEM('',(#610),#320);
#300=STYLED_ITEM('',(#610),#321);
#301=STYLED_ITEM('',(#610),#322);
#302=STYLED_ITEM('',(#610),#323);
#303=STYLED_ITEM('',(#610),#324);
#304=STYLED_ITEM('',(#608),#13);
#305=ADVANCED_FACE('',(#32),#277,.T.);
#306=ADVANCED_FACE('',(#33),#26,.T.);
#307=ADVANCED_FACE('',(#34),#19,.T.);
#308=ADVANCED_FACE('',(#35),#278,.T.);
#309=ADVANCED_FACE('',(#36),#27,.T.);
#310=ADVANCED_FACE('',(#37),#20,.T.);
#311=ADVANCED_FACE('',(#38),#279,.T.);
#312=ADVANCED_FACE('',(#39),#28,.T.);
#313=ADVANCED_FACE('',(#40),#21,.T.);
#314=ADVANCED_FACE('',(#41),#280,.T.);
#315=ADVANCED_FACE('',(#42),#29,.T.);
#316=ADVANCED_FACE('',(#43),#22,.T.);
#317=ADVANCED_FACE('',(#44),#281,.T.);
#318=ADVANCED_FACE('',(#45,#14,#15,#16,#17),#23,.T.);
#319=ADVANCED_FACE('',(#46),#30,.T.);
#320=ADVANCED_FACE('',(#47),#282,.T.);
#321=ADVANCED_FACE('',(#48),#31,.T.);
#322=ADVANCED_FACE('',(#49,#18),#24,.F.);
#323=ADVANCED_FACE('',(#50),#283,.T.);
#324=ADVANCED_FACE('',(#51),#25,.T.);
#325=CLOSED_SHELL('',(#305,#306,#307,#308,#309,#310,#311,#312,#313,#314,
#315,#316,#317,#318,#319,#320,#321,#322,#323,#324));
#326=DERIVED_UNIT_ELEMENT(#328,1.);
#327=DERIVED_UNIT_ELEMENT(#594,3.);
#328=(
MASS_UNIT()
NAMED_UNIT(*)
SI_UNIT($,.GRAM.)
);
#329=DERIVED_UNIT((#326,#327));
#330=MEASURE_REPRESENTATION_ITEM('density measure',
POSITIVE_RATIO_MEASURE(1.),#329);
#331=PROPERTY_DEFINITION_REPRESENTATION(#336,#333);
#332=PROPERTY_DEFINITION_REPRESENTATION(#337,#334);
#333=REPRESENTATION('material name',(#335),#591);
#334=REPRESENTATION('density',(#330),#591);
#335=DESCRIPTIVE_REPRESENTATION_ITEM('Generisch','Generisch');
#336=PROPERTY_DEFINITION('material property','material name',#601);
#337=PROPERTY_DEFINITION('material property','density of part',#601);
#338=DATE_TIME_ROLE('creation_date');
#339=APPLIED_DATE_AND_TIME_ASSIGNMENT(#340,#338,(#601));
#340=DATE_AND_TIME(#341,#342);
#341=CALENDAR_DATE(2020,11,9);
#342=LOCAL_TIME(0,0,0.,#343);
#343=COORDINATED_UNIVERSAL_TIME_OFFSET(0,0,.BEHIND.);
#344=AXIS2_PLACEMENT_3D('placement',#501,#392,#393);
#345=AXIS2_PLACEMENT_3D('',#502,#394,#395);
#346=AXIS2_PLACEMENT_3D('',#504,#396,#397);
#347=AXIS2_PLACEMENT_3D('',#508,#399,#400);
#348=AXIS2_PLACEMENT_3D('',#509,#401,#402);
#349=AXIS2_PLACEMENT_3D('',#510,#403,#404);
#350=AXIS2_PLACEMENT_3D('',#513,#406,#407);
#351=AXIS2_PLACEMENT_3D('',#514,#408,#409);
#352=AXIS2_PLACEMENT_3D('',#515,#410,#411);
#353=AXIS2_PLACEMENT_3D('',#517,#412,#413);
#354=AXIS2_PLACEMENT_3D('',#521,#415,#416);
#355=AXIS2_PLACEMENT_3D('',#522,#417,#418);
#356=AXIS2_PLACEMENT_3D('',#523,#419,#420);
#357=AXIS2_PLACEMENT_3D('',#526,#422,#423);
#358=AXIS2_PLACEMENT_3D('',#527,#424,#425);
#359=AXIS2_PLACEMENT_3D('',#528,#426,#427);
#360=AXIS2_PLACEMENT_3D('',#530,#428,#429);
#361=AXIS2_PLACEMENT_3D('',#534,#431,#432);
#362=AXIS2_PLACEMENT_3D('',#535,#433,#434);
#363=AXIS2_PLACEMENT_3D('',#536,#435,#436);
#364=AXIS2_PLACEMENT_3D('',#539,#438,#439);
#365=AXIS2_PLACEMENT_3D('',#540,#440,#441);
#366=AXIS2_PLACEMENT_3D('',#541,#442,#443);
#367=AXIS2_PLACEMENT_3D('',#543,#444,#445);
#368=AXIS2_PLACEMENT_3D('',#547,#447,#448);
#369=AXIS2_PLACEMENT_3D('',#548,#449,#450);
#370=AXIS2_PLACEMENT_3D('',#549,#451,#452);
#371=AXIS2_PLACEMENT_3D('',#552,#454,#455);
#372=AXIS2_PLACEMENT_3D('',#553,#456,#457);
#373=AXIS2_PLACEMENT_3D('',#554,#458,#459);
#374=AXIS2_PLACEMENT_3D('',#556,#460,#461);
#375=AXIS2_PLACEMENT_3D('',#560,#463,#464);
#376=AXIS2_PLACEMENT_3D('',#561,#465,#466);
#377=AXIS2_PLACEMENT_3D('',#562,#467,#468);
#378=AXIS2_PLACEMENT_3D('',#563,#469,#470);
#379=AXIS2_PLACEMENT_3D('',#567,#472,#473);
#380=AXIS2_PLACEMENT_3D('',#568,#474,#475);
#381=AXIS2_PLACEMENT_3D('',#569,#476,#477);
#382=AXIS2_PLACEMENT_3D('',#572,#478,#479);
#383=AXIS2_PLACEMENT_3D('',#573,#480,#481);
#384=AXIS2_PLACEMENT_3D('',#576,#483,#484);
#385=AXIS2_PLACEMENT_3D('',#577,#485,#486);
#386=AXIS2_PLACEMENT_3D('',#580,#487,#488);
#387=AXIS2_PLACEMENT_3D('',#581,#489,#490);
#388=AXIS2_PLACEMENT_3D('',#583,#492,#493);
#389=AXIS2_PLACEMENT_3D('',#584,#494,#495);
#390=AXIS2_PLACEMENT_3D('',#586,#496,#497);
#391=AXIS2_PLACEMENT_3D('',#588,#499,#500);
#392=DIRECTION('axis',(0.,0.,1.));
#393=DIRECTION('refdir',(1.,0.,0.));
#394=DIRECTION('center_axis',(0.,0.,1.));
#395=DIRECTION('ref_axis',(1.,0.,0.));
#396=DIRECTION('center_axis',(0.,0.,1.));
#397=DIRECTION('ref_axis',(1.,0.,0.));
#398=DIRECTION('',(-0.707106781186547,8.65956056235494E-17,0.707106781186547));
#399=DIRECTION('center_axis',(0.,0.,-1.));
#400=DIRECTION('ref_axis',(1.,0.,0.));
#401=DIRECTION('center_axis',(0.,0.,-1.));
#402=DIRECTION('ref_axis',(1.,0.,0.));
#403=DIRECTION('center_axis',(0.,0.,-1.));
#404=DIRECTION('ref_axis',(-1.,0.,0.));
#405=DIRECTION('',(0.,0.,1.));
#406=DIRECTION('center_axis',(0.,0.,-1.));
#407=DIRECTION('ref_axis',(-1.,0.,0.));
#408=DIRECTION('center_axis',(0.,0.,-1.));
#409=DIRECTION('ref_axis',(-1.,0.,0.));
#410=DIRECTION('center_axis',(0.,0.,1.));
#411=DIRECTION('ref_axis',(1.,0.,0.));
#412=DIRECTION('center_axis',(0.,0.,1.));
#413=DIRECTION('ref_axis',(1.,0.,0.));
#414=DIRECTION('',(-0.707106781186547,8.65956056235493E-17,0.707106781186548));
#415=DIRECTION('center_axis',(0.,0.,-1.));
#416=DIRECTION('ref_axis',(1.,0.,0.));
#417=DIRECTION('center_axis',(0.,0.,-1.));
#418=DIRECTION('ref_axis',(1.,0.,0.));
#419=DIRECTION('center_axis',(0.,0.,-1.));
#420=DIRECTION('ref_axis',(-1.,0.,0.));
#421=DIRECTION('',(0.,0.,1.));
#422=DIRECTION('center_axis',(0.,0.,-1.));
#423=DIRECTION('ref_axis',(-1.,0.,0.));
#424=DIRECTION('center_axis',(0.,0.,-1.));
#425=DIRECTION('ref_axis',(-1.,0.,0.));
#426=DIRECTION('center_axis',(0.,0.,1.));
#427=DIRECTION('ref_axis',(1.,0.,0.));
#428=DIRECTION('center_axis',(0.,0.,1.));
#429=DIRECTION('ref_axis',(1.,0.,0.));
#430=DIRECTION('',(-0.707106781186547,8.65956056235494E-17,0.707106781186547));
#431=DIRECTION('center_axis',(0.,0.,-1.));
#432=DIRECTION('ref_axis',(1.,0.,0.));
#433=DIRECTION('center_axis',(0.,0.,-1.));
#434=DIRECTION('ref_axis',(1.,0.,0.));
#435=DIRECTION('center_axis',(0.,0.,-1.));
#436=DIRECTION('ref_axis',(-1.,0.,0.));
#437=DIRECTION('',(0.,0.,1.));
#438=DIRECTION('center_axis',(0.,0.,-1.));
#439=DIRECTION('ref_axis',(-1.,0.,0.));
#440=DIRECTION('center_axis',(0.,0.,-1.));
#441=DIRECTION('ref_axis',(-1.,0.,0.));
#442=DIRECTION('center_axis',(0.,0.,1.));
#443=DIRECTION('ref_axis',(1.,0.,0.));
#444=DIRECTION('center_axis',(0.,0.,1.));
#445=DIRECTION('ref_axis',(1.,0.,0.));
#446=DIRECTION('',(-0.707106781186547,8.65956056235493E-17,0.707106781186548));
#447=DIRECTION('center_axis',(0.,0.,-1.));
#448=DIRECTION('ref_axis',(1.,0.,0.));
#449=DIRECTION('center_axis',(0.,0.,-1.));
#450=DIRECTION('ref_axis',(1.,0.,0.));
#451=DIRECTION('center_axis',(0.,0.,-1.));
#452=DIRECTION('ref_axis',(-1.,0.,0.));
#453=DIRECTION('',(0.,0.,1.));
#454=DIRECTION('center_axis',(0.,0.,-1.));
#455=DIRECTION('ref_axis',(-1.,0.,0.));
#456=DIRECTION('center_axis',(0.,0.,-1.));
#457=DIRECTION('ref_axis',(-1.,0.,0.));
#458=DIRECTION('center_axis',(0.,0.,1.));
#459=DIRECTION('ref_axis',(1.,0.,0.));
#460=DIRECTION('center_axis',(0.,0.,1.));
#461=DIRECTION('ref_axis',(1.,0.,0.));
#462=DIRECTION('',(-0.707106781186548,8.65956056235494E-17,0.707106781186547));
#463=DIRECTION('center_axis',(0.,0.,-1.));
#464=DIRECTION('ref_axis',(1.,0.,0.));
#465=DIRECTION('center_axis',(0.,0.,-1.));
#466=DIRECTION('ref_axis',(1.,0.,0.));
#467=DIRECTION('center_axis',(0.,0.,-1.));
#468=DIRECTION('ref_axis',(-1.,0.,0.));
#469=DIRECTION('center_axis',(0.,0.,-1.));
#470=DIRECTION('ref_axis',(-1.,0.,0.));
#471=DIRECTION('',(0.,0.,1.));
#472=DIRECTION('center_axis',(0.,0.,1.));
#473=DIRECTION('ref_axis',(-1.,0.,0.));
#474=DIRECTION('center_axis',(0.,0.,1.));
#475=DIRECTION('ref_axis',(-1.,0.,0.));
#476=DIRECTION('center_axis',(0.,0.,1.));
#477=DIRECTION('ref_axis',(-1.,0.,0.));
#478=DIRECTION('center_axis',(0.,0.,-1.));
#479=DIRECTION('ref_axis',(-1.,0.,0.));
#480=DIRECTION('center_axis',(0.,0.,-1.));
#481=DIRECTION('ref_axis',(-1.,0.,0.));
#482=DIRECTION('',(-0.707106781186548,-8.65956056235494E-17,-0.707106781186547));
#483=DIRECTION('center_axis',(0.,0.,1.));
#484=DIRECTION('ref_axis',(-1.,0.,0.));
#485=DIRECTION('center_axis',(0.,0.,1.));
#486=DIRECTION('ref_axis',(1.,0.,0.));
#487=DIRECTION('center_axis',(0.,0.,1.));
#488=DIRECTION('ref_axis',(-1.,0.,0.));
#489=DIRECTION('center_axis',(0.,0.,1.));
#490=DIRECTION('ref_axis',(-1.,0.,0.));
#491=DIRECTION('',(0.,0.,-1.));
#492=DIRECTION('center_axis',(0.,0.,1.));
#493=DIRECTION('ref_axis',(1.,0.,0.));
#494=DIRECTION('center_axis',(0.,0.,-1.));
#495=DIRECTION('ref_axis',(-1.,0.,0.));
#496=DIRECTION('center_axis',(0.,0.,-1.));
#497=DIRECTION('ref_axis',(-1.,0.,0.));
#498=DIRECTION('',(0.707106781186548,8.65956056235493E-17,-0.707106781186548));
#499=DIRECTION('center_axis',(0.,0.,1.));
#500=DIRECTION('ref_axis',(1.,0.,0.));
#501=CARTESIAN_POINT('',(0.,0.,0.));
#502=CARTESIAN_POINT('Origin',(6.,-6.5,-4.4));
#503=CARTESIAN_POINT('',(5.6,-6.5,-4.5));
#504=CARTESIAN_POINT('Origin',(6.,-6.5,-4.5));
#505=CARTESIAN_POINT('',(5.4,-6.5,-4.3));
#506=CARTESIAN_POINT('',(5.5,-6.5,-4.4));
#507=CARTESIAN_POINT('',(6.6,-6.5,-4.3));
#508=CARTESIAN_POINT('Origin',(6.,-6.5,-4.3));
#509=CARTESIAN_POINT('Origin',(6.,-6.5,-4.3));
#510=CARTESIAN_POINT('Origin',(6.,-6.5,0.));
#511=CARTESIAN_POINT('',(6.6,-6.5,-1.5));
#512=CARTESIAN_POINT('',(6.6,-6.5,0.));
#513=CARTESIAN_POINT('Origin',(6.,-6.5,-1.5));
#514=CARTESIAN_POINT('Origin',(6.,-6.5,-4.5));
#515=CARTESIAN_POINT('Origin',(0.,-8.5,-4.4));
#516=CARTESIAN_POINT('',(-0.4,-8.5,-4.5));
#517=CARTESIAN_POINT('Origin',(0.,-8.5,-4.5));
#518=CARTESIAN_POINT('',(-0.6,-8.5,-4.3));
#519=CARTESIAN_POINT('',(-0.5,-8.5,-4.4));
#520=CARTESIAN_POINT('',(0.6,-8.5,-4.3));
#521=CARTESIAN_POINT('Origin',(0.,-8.5,-4.3));
#522=CARTESIAN_POINT('Origin',(0.,-8.5,-4.3));
#523=CARTESIAN_POINT('Origin',(0.,-8.5,0.));
#524=CARTESIAN_POINT('',(0.6,-8.5,-1.5));
#525=CARTESIAN_POINT('',(0.6,-8.5,0.));
#526=CARTESIAN_POINT('Origin',(0.,-8.5,-1.5));
#527=CARTESIAN_POINT('Origin',(0.,-8.5,-4.5));
#528=CARTESIAN_POINT('Origin',(-6.,-6.5,-4.4));
#529=CARTESIAN_POINT('',(-6.4,-6.5,-4.5));
#530=CARTESIAN_POINT('Origin',(-6.,-6.5,-4.5));
#531=CARTESIAN_POINT('',(-6.6,-6.5,-4.3));
#532=CARTESIAN_POINT('',(-6.5,-6.5,-4.4));
#533=CARTESIAN_POINT('',(-5.4,-6.5,-4.3));
#534=CARTESIAN_POINT('Origin',(-6.,-6.5,-4.3));
#535=CARTESIAN_POINT('Origin',(-6.,-6.5,-4.3));
#536=CARTESIAN_POINT('Origin',(-6.,-6.5,0.));
#537=CARTESIAN_POINT('',(-5.4,-6.5,-1.5));
#538=CARTESIAN_POINT('',(-5.4,-6.5,0.));
#539=CARTESIAN_POINT('Origin',(-6.,-6.5,-1.5));
#540=CARTESIAN_POINT('Origin',(-6.,-6.5,-4.5));
#541=CARTESIAN_POINT('Origin',(0.,8.5,-4.4));
#542=CARTESIAN_POINT('',(-0.4,8.5,-4.5));
#543=CARTESIAN_POINT('Origin',(0.,8.5,-4.5));
#544=CARTESIAN_POINT('',(-0.6,8.5,-4.3));
#545=CARTESIAN_POINT('',(-0.5,8.5,-4.4));
#546=CARTESIAN_POINT('',(0.6,8.5,-4.3));
#547=CARTESIAN_POINT('Origin',(0.,8.5,-4.3));
#548=CARTESIAN_POINT('Origin',(0.,8.5,-4.3));
#549=CARTESIAN_POINT('Origin',(0.,8.5,0.));
#550=CARTESIAN_POINT('',(0.6,8.5,-1.5));
#551=CARTESIAN_POINT('',(0.6,8.5,0.));
#552=CARTESIAN_POINT('Origin',(0.,8.5,-1.5));
#553=CARTESIAN_POINT('Origin',(0.,8.5,-4.5));
#554=CARTESIAN_POINT('Origin',(0.,0.,-1.25));
#555=CARTESIAN_POINT('',(-11.5,-1.40834381901946E-15,-1.5));
#556=CARTESIAN_POINT('Origin',(0.,0.,-1.5));
#557=CARTESIAN_POINT('',(-12.,1.46957615897682E-15,-1.));
#558=CARTESIAN_POINT('',(-11.75,1.43895998899814E-15,-1.25));
#559=CARTESIAN_POINT('',(12.,-1.46957615897682E-15,-1.));
#560=CARTESIAN_POINT('Origin',(0.,0.,-1.));
#561=CARTESIAN_POINT('Origin',(0.,0.,-1.));
#562=CARTESIAN_POINT('Origin',(0.,0.,-1.5));
#563=CARTESIAN_POINT('Origin',(0.,0.,0.));
#564=CARTESIAN_POINT('',(12.,-1.46957615897682E-15,0.));
#565=CARTESIAN_POINT('',(12.,-1.46957615897682E-15,0.));
#566=CARTESIAN_POINT('',(-12.,0.,0.));
#567=CARTESIAN_POINT('Origin',(0.,0.,0.));
#568=CARTESIAN_POINT('Origin',(0.,0.,0.));
#569=CARTESIAN_POINT('Origin',(0.,0.,0.5));
#570=CARTESIAN_POINT('',(16.,-1.95943487863577E-15,1.));
#571=CARTESIAN_POINT('',(-16.,-1.95943487863577E-15,1.));
#572=CARTESIAN_POINT('Origin',(0.,0.,1.));
#573=CARTESIAN_POINT('Origin',(0.,0.,1.));
#574=CARTESIAN_POINT('',(15.,1.83697019872103E-15,0.));
#575=CARTESIAN_POINT('',(15.5,1.8982025386784E-15,0.5));
#576=CARTESIAN_POINT('Origin',(0.,0.,0.));
#577=CARTESIAN_POINT('Origin',(0.,0.,0.));
#578=CARTESIAN_POINT('',(16.,1.95943487863577E-15,14.5));
#579=CARTESIAN_POINT('',(-16.,-1.95943487863577E-15,14.5));
#580=CARTESIAN_POINT('Origin',(0.,0.,14.5));
#581=CARTESIAN_POINT('Origin',(0.,0.,14.5));
#582=CARTESIAN_POINT('',(-16.,-1.95943487863577E-15,0.));
#583=CARTESIAN_POINT('Origin',(0.,0.,0.));
#584=CARTESIAN_POINT('Origin',(0.,0.,15.));
#585=CARTESIAN_POINT('',(15.,-1.83697019872103E-15,15.5));
#586=CARTESIAN_POINT('Origin',(0.,0.,15.5));
#587=CARTESIAN_POINT('',(15.5,1.8982025386784E-15,15.));
#588=CARTESIAN_POINT('Origin',(0.,0.,15.5));
#589=UNCERTAINTY_MEASURE_WITH_UNIT(LENGTH_MEASURE(0.01),#593,
'DISTANCE_ACCURACY_VALUE',
'Maximum model space distance between geometric entities at asserted c
onnectivities');
#590=UNCERTAINTY_MEASURE_WITH_UNIT(LENGTH_MEASURE(0.01),#593,
'DISTANCE_ACCURACY_VALUE',
'Maximum model space distance between geometric entities at asserted c
onnectivities');
#591=(
GEOMETRIC_REPRESENTATION_CONTEXT(3)
GLOBAL_UNCERTAINTY_ASSIGNED_CONTEXT((#589))
GLOBAL_UNIT_ASSIGNED_CONTEXT((#593,#595,#596))
REPRESENTATION_CONTEXT('','3D')
);
#592=(
GEOMETRIC_REPRESENTATION_CONTEXT(3)
GLOBAL_UNCERTAINTY_ASSIGNED_CONTEXT((#590))
GLOBAL_UNIT_ASSIGNED_CONTEXT((#593,#595,#596))
REPRESENTATION_CONTEXT('','3D')
);
#593=(
LENGTH_UNIT()
NAMED_UNIT(*)
SI_UNIT(.MILLI.,.METRE.)
);
#594=(
LENGTH_UNIT()
NAMED_UNIT(*)
SI_UNIT(.CENTI.,.METRE.)
);
#595=(
NAMED_UNIT(*)
PLANE_ANGLE_UNIT()
SI_UNIT($,.RADIAN.)
);
#596=(
NAMED_UNIT(*)
SI_UNIT($,.STERADIAN.)
SOLID_ANGLE_UNIT()
);
#597=SHAPE_DEFINITION_REPRESENTATION(#598,#599);
#598=PRODUCT_DEFINITION_SHAPE('',$,#601);
#599=SHAPE_REPRESENTATION('',(#344),#591);
#600=PRODUCT_DEFINITION_CONTEXT('part definition',#605,'design');
#601=PRODUCT_DEFINITION('Compact Vorlage','Compact Vorlage',#602,#600);
#602=PRODUCT_DEFINITION_FORMATION('',$,#607);
#603=PRODUCT_RELATED_PRODUCT_CATEGORY('Compact Vorlage',
'Compact Vorlage',(#607));
#604=APPLICATION_PROTOCOL_DEFINITION('international standard',
'automotive_design',2009,#605);
#605=APPLICATION_CONTEXT(
'Core Data for Automotive Mechanical Design Process');
#606=PRODUCT_CONTEXT('part definition',#605,'mechanical');
#607=PRODUCT('Compact Vorlage','Compact Vorlage',$,(#606));
#608=PRESENTATION_STYLE_ASSIGNMENT((#611));
#609=PRESENTATION_STYLE_ASSIGNMENT((#612));
#610=PRESENTATION_STYLE_ASSIGNMENT((#613));
#611=SURFACE_STYLE_USAGE(.BOTH.,#620);
#612=SURFACE_STYLE_USAGE(.BOTH.,#621);
#613=SURFACE_STYLE_USAGE(.BOTH.,#622);
#614=SURFACE_STYLE_RENDERING_WITH_PROPERTIES($,#632,(#617));
#615=SURFACE_STYLE_RENDERING_WITH_PROPERTIES($,#633,(#618));
#616=SURFACE_STYLE_RENDERING_WITH_PROPERTIES($,#634,(#619));
#617=SURFACE_STYLE_TRANSPARENT(0.);
#618=SURFACE_STYLE_TRANSPARENT(0.);
#619=SURFACE_STYLE_TRANSPARENT(0.53999999165535);
#620=SURFACE_SIDE_STYLE('',(#623,#614));
#621=SURFACE_SIDE_STYLE('',(#624,#615));
#622=SURFACE_SIDE_STYLE('',(#625,#616));
#623=SURFACE_STYLE_FILL_AREA(#626);
#624=SURFACE_STYLE_FILL_AREA(#627);
#625=SURFACE_STYLE_FILL_AREA(#628);
#626=FILL_AREA_STYLE('',(#629));
#627=FILL_AREA_STYLE('',(#630));
#628=FILL_AREA_STYLE('',(#631));
#629=FILL_AREA_STYLE_COLOUR('',#632);
#630=FILL_AREA_STYLE_COLOUR('',#633);
#631=FILL_AREA_STYLE_COLOUR('',#634);
#632=COLOUR_RGB('',0.92156862745098,0.92156862745098,0.92156862745098);
#633=COLOUR_RGB('',0.780392156862745,0.56078431372549,0.109803921568627);
#634=COLOUR_RGB('',0.8,0.8,0.8);
ENDSEC;
END-ISO-10303-21;
