ISO-10303-21;
HEADER;
/* Generated by software containing ST-Developer
 * from STEP Tools, Inc. (www.steptools.com) 
 */

FILE_DESCRIPTION(
/* description */ (''),
/* implementation_level */ '2;1');

FILE_NAME(
/* name */ 'Unterteil.stp',
/* time_stamp */ '2025-10-02T14:43:44+02:00',
/* author */ ('station1'),
/* organization */ (''),
/* preprocessor_version */ 'ST-DEVELOPER v20.1',
/* originating_system */ 'Autodesk Inventor 2026',
/* authorisation */ '');

FILE_SCHEMA (('AUTOMOTIVE_DESIGN { 1 0 10303 214 3 1 1 }'));
ENDSEC;

DATA;
#10=MECHANICAL_DESIGN_GEOMETRIC_PRESENTATION_REPRESENTATION('',(#14,#15,
#16,#17),#560);
#11=SHAPE_REPRESENTATION_RELATIONSHIP('SRR','None',#567,#12);
#12=ADVANCED_BREP_SHAPE_REPRESENTATION('',(#13),#559);
#13=MANIFOLD_SOLID_BREP('Volumenk\X\F6rper1',#295);
#14=STYLED_ITEM('',(#577),#292);
#15=STYLED_ITEM('',(#577),#293);
#16=STYLED_ITEM('',(#577),#294);
#17=STYLED_ITEM('',(#576),#13);
#18=LINE('',#494,#25);
#19=LINE('',#506,#26);
#20=LINE('',#533,#27);
#21=LINE('',#542,#28);
#22=LINE('',#552,#29);
#23=LINE('',#554,#30);
#24=LINE('',#556,#31);
#25=VECTOR('',#391,19.7);
#26=VECTOR('',#406,20.5);
#27=VECTOR('',#441,16.4);
#28=VECTOR('',#452,12.3);
#29=VECTOR('',#467,0.7835);
#30=VECTOR('',#470,0.7835);
#31=VECTOR('',#473,0.7835);
#32=CYLINDRICAL_SURFACE('',#328,19.7);
#33=CYLINDRICAL_SURFACE('',#335,20.5);
#34=CYLINDRICAL_SURFACE('',#351,16.4);
#35=CYLINDRICAL_SURFACE('',#357,12.3);
#36=CYLINDRICAL_SURFACE('',#364,0.7835);
#37=CYLINDRICAL_SURFACE('',#365,0.7835);
#38=CYLINDRICAL_SURFACE('',#366,0.7835);
#39=FACE_BOUND('',#72,.T.);
#40=FACE_BOUND('',#73,.T.);
#41=FACE_BOUND('',#74,.T.);
#42=FACE_BOUND('',#75,.T.);
#43=FACE_BOUND('',#80,.T.);
#44=FACE_BOUND('',#83,.T.);
#45=FACE_BOUND('',#84,.T.);
#46=FACE_BOUND('',#85,.T.);
#47=FACE_BOUND('',#86,.T.);
#48=FACE_BOUND('',#93,.T.);
#49=PLANE('',#323);
#50=PLANE('',#338);
#51=PLANE('',#342);
#52=PLANE('',#363);
#53=FACE_OUTER_BOUND('',#70,.T.);
#54=FACE_OUTER_BOUND('',#71,.T.);
#55=FACE_OUTER_BOUND('',#76,.T.);
#56=FACE_OUTER_BOUND('',#77,.T.);
#57=FACE_OUTER_BOUND('',#78,.T.);
#58=FACE_OUTER_BOUND('',#79,.T.);
#59=FACE_OUTER_BOUND('',#81,.T.);
#60=FACE_OUTER_BOUND('',#82,.T.);
#61=FACE_OUTER_BOUND('',#87,.T.);
#62=FACE_OUTER_BOUND('',#88,.T.);
#63=FACE_OUTER_BOUND('',#89,.T.);
#64=FACE_OUTER_BOUND('',#90,.T.);
#65=FACE_OUTER_BOUND('',#91,.T.);
#66=FACE_OUTER_BOUND('',#92,.T.);
#67=FACE_OUTER_BOUND('',#94,.T.);
#68=FACE_OUTER_BOUND('',#95,.T.);
#69=FACE_OUTER_BOUND('',#96,.T.);
#70=EDGE_LOOP('',(#194,#195,#196,#197,#198));
#71=EDGE_LOOP('',(#199));
#72=EDGE_LOOP('',(#200));
#73=EDGE_LOOP('',(#201));
#74=EDGE_LOOP('',(#202));
#75=EDGE_LOOP('',(#203));
#76=EDGE_LOOP('',(#204,#205,#206,#207,#208));
#77=EDGE_LOOP('',(#209,#210,#211,#212,#213));
#78=EDGE_LOOP('',(#214,#215,#216,#217,#218,#219));
#79=EDGE_LOOP('',(#220));
#80=EDGE_LOOP('',(#221));
#81=EDGE_LOOP('',(#222,#223,#224,#225,#226));
#82=EDGE_LOOP('',(#227));
#83=EDGE_LOOP('',(#228));
#84=EDGE_LOOP('',(#229));
#85=EDGE_LOOP('',(#230));
#86=EDGE_LOOP('',(#231));
#87=EDGE_LOOP('',(#232,#233,#234,#235,#236));
#88=EDGE_LOOP('',(#237,#238,#239,#240,#241));
#89=EDGE_LOOP('',(#242,#243,#244,#245,#246));
#90=EDGE_LOOP('',(#247,#248,#249,#250,#251,#252));
#91=EDGE_LOOP('',(#253,#254,#255,#256,#257));
#92=EDGE_LOOP('',(#258));
#93=EDGE_LOOP('',(#259));
#94=EDGE_LOOP('',(#260,#261,#262,#263));
#95=EDGE_LOOP('',(#264,#265,#266,#267));
#96=EDGE_LOOP('',(#268,#269,#270,#271));
#97=CIRCLE('',#319,19.6);
#98=CIRCLE('',#320,0.1);
#99=CIRCLE('',#321,19.7);
#100=CIRCLE('',#322,19.7);
#101=CIRCLE('',#324,0.7835);
#102=CIRCLE('',#325,0.7835);
#103=CIRCLE('',#326,0.7835);
#104=CIRCLE('',#327,12.4);
#105=CIRCLE('',#329,19.7);
#106=CIRCLE('',#331,20.4);
#107=CIRCLE('',#332,0.1);
#108=CIRCLE('',#333,20.5);
#109=CIRCLE('',#334,20.5);
#110=CIRCLE('',#336,20.5);
#111=CIRCLE('',#337,20.5);
#112=CIRCLE('',#340,20.4);
#113=CIRCLE('',#341,0.1);
#114=CIRCLE('',#343,16.5);
#115=CIRCLE('',#344,0.7835);
#116=CIRCLE('',#345,0.7835);
#117=CIRCLE('',#346,0.7835);
#118=CIRCLE('',#348,0.1);
#119=CIRCLE('',#349,16.4);
#120=CIRCLE('',#350,16.4);
#121=CIRCLE('',#352,16.4);
#122=CIRCLE('',#354,12.3);
#123=CIRCLE('',#355,12.3);
#124=CIRCLE('',#356,0.1);
#125=CIRCLE('',#358,12.3);
#126=CIRCLE('',#359,12.3);
#127=CIRCLE('',#361,12.4);
#128=CIRCLE('',#362,0.1);
#129=VERTEX_POINT('',#476);
#130=VERTEX_POINT('',#478);
#131=VERTEX_POINT('',#480);
#132=VERTEX_POINT('',#484);
#133=VERTEX_POINT('',#486);
#134=VERTEX_POINT('',#488);
#135=VERTEX_POINT('',#490);
#136=VERTEX_POINT('',#493);
#137=VERTEX_POINT('',#497);
#138=VERTEX_POINT('',#499);
#139=VERTEX_POINT('',#501);
#140=VERTEX_POINT('',#505);
#141=VERTEX_POINT('',#507);
#142=VERTEX_POINT('',#512);
#143=VERTEX_POINT('',#516);
#144=VERTEX_POINT('',#518);
#145=VERTEX_POINT('',#520);
#146=VERTEX_POINT('',#522);
#147=VERTEX_POINT('',#525);
#148=VERTEX_POINT('',#527);
#149=VERTEX_POINT('',#531);
#150=VERTEX_POINT('',#535);
#151=VERTEX_POINT('',#536);
#152=VERTEX_POINT('',#541);
#153=VERTEX_POINT('',#543);
#154=VERTEX_POINT('',#547);
#155=EDGE_CURVE('',#129,#129,#97,.T.);
#156=EDGE_CURVE('',#129,#130,#98,.T.);
#157=EDGE_CURVE('',#130,#131,#99,.T.);
#158=EDGE_CURVE('',#131,#130,#100,.T.);
#159=EDGE_CURVE('',#132,#132,#101,.T.);
#160=EDGE_CURVE('',#133,#133,#102,.T.);
#161=EDGE_CURVE('',#134,#134,#103,.T.);
#162=EDGE_CURVE('',#135,#135,#104,.T.);
#163=EDGE_CURVE('',#131,#136,#18,.T.);
#164=EDGE_CURVE('',#136,#136,#105,.T.);
#165=EDGE_CURVE('',#137,#137,#106,.T.);
#166=EDGE_CURVE('',#137,#138,#107,.T.);
#167=EDGE_CURVE('',#138,#139,#108,.T.);
#168=EDGE_CURVE('',#139,#138,#109,.T.);
#169=EDGE_CURVE('',#139,#140,#19,.T.);
#170=EDGE_CURVE('',#141,#140,#110,.T.);
#171=EDGE_CURVE('',#140,#141,#111,.T.);
#172=EDGE_CURVE('',#142,#142,#112,.T.);
#173=EDGE_CURVE('',#142,#141,#113,.T.);
#174=EDGE_CURVE('',#143,#143,#114,.T.);
#175=EDGE_CURVE('',#144,#144,#115,.T.);
#176=EDGE_CURVE('',#145,#145,#116,.T.);
#177=EDGE_CURVE('',#146,#146,#117,.T.);
#178=EDGE_CURVE('',#143,#147,#118,.T.);
#179=EDGE_CURVE('',#147,#148,#119,.T.);
#180=EDGE_CURVE('',#148,#147,#120,.T.);
#181=EDGE_CURVE('',#149,#149,#121,.T.);
#182=EDGE_CURVE('',#149,#148,#20,.T.);
#183=EDGE_CURVE('',#150,#151,#122,.T.);
#184=EDGE_CURVE('',#151,#150,#123,.T.);
#185=EDGE_CURVE('',#150,#135,#124,.T.);
#186=EDGE_CURVE('',#151,#152,#21,.T.);
#187=EDGE_CURVE('',#153,#152,#125,.T.);
#188=EDGE_CURVE('',#152,#153,#126,.T.);
#189=EDGE_CURVE('',#154,#154,#127,.T.);
#190=EDGE_CURVE('',#154,#153,#128,.T.);
#191=EDGE_CURVE('',#144,#132,#22,.T.);
#192=EDGE_CURVE('',#145,#133,#23,.T.);
#193=EDGE_CURVE('',#146,#134,#24,.T.);
#194=ORIENTED_EDGE('',*,*,#155,.T.);
#195=ORIENTED_EDGE('',*,*,#156,.T.);
#196=ORIENTED_EDGE('',*,*,#157,.T.);
#197=ORIENTED_EDGE('',*,*,#158,.T.);
#198=ORIENTED_EDGE('',*,*,#156,.F.);
#199=ORIENTED_EDGE('',*,*,#155,.F.);
#200=ORIENTED_EDGE('',*,*,#159,.T.);
#201=ORIENTED_EDGE('',*,*,#160,.T.);
#202=ORIENTED_EDGE('',*,*,#161,.T.);
#203=ORIENTED_EDGE('',*,*,#162,.F.);
#204=ORIENTED_EDGE('',*,*,#158,.F.);
#205=ORIENTED_EDGE('',*,*,#163,.T.);
#206=ORIENTED_EDGE('',*,*,#164,.T.);
#207=ORIENTED_EDGE('',*,*,#163,.F.);
#208=ORIENTED_EDGE('',*,*,#157,.F.);
#209=ORIENTED_EDGE('',*,*,#165,.T.);
#210=ORIENTED_EDGE('',*,*,#166,.T.);
#211=ORIENTED_EDGE('',*,*,#167,.T.);
#212=ORIENTED_EDGE('',*,*,#168,.T.);
#213=ORIENTED_EDGE('',*,*,#166,.F.);
#214=ORIENTED_EDGE('',*,*,#168,.F.);
#215=ORIENTED_EDGE('',*,*,#169,.T.);
#216=ORIENTED_EDGE('',*,*,#170,.F.);
#217=ORIENTED_EDGE('',*,*,#171,.F.);
#218=ORIENTED_EDGE('',*,*,#169,.F.);
#219=ORIENTED_EDGE('',*,*,#167,.F.);
#220=ORIENTED_EDGE('',*,*,#165,.F.);
#221=ORIENTED_EDGE('',*,*,#164,.F.);
#222=ORIENTED_EDGE('',*,*,#172,.T.);
#223=ORIENTED_EDGE('',*,*,#173,.T.);
#224=ORIENTED_EDGE('',*,*,#170,.T.);
#225=ORIENTED_EDGE('',*,*,#171,.T.);
#226=ORIENTED_EDGE('',*,*,#173,.F.);
#227=ORIENTED_EDGE('',*,*,#172,.F.);
#228=ORIENTED_EDGE('',*,*,#174,.F.);
#229=ORIENTED_EDGE('',*,*,#175,.T.);
#230=ORIENTED_EDGE('',*,*,#176,.T.);
#231=ORIENTED_EDGE('',*,*,#177,.T.);
#232=ORIENTED_EDGE('',*,*,#174,.T.);
#233=ORIENTED_EDGE('',*,*,#178,.T.);
#234=ORIENTED_EDGE('',*,*,#179,.T.);
#235=ORIENTED_EDGE('',*,*,#180,.T.);
#236=ORIENTED_EDGE('',*,*,#178,.F.);
#237=ORIENTED_EDGE('',*,*,#181,.T.);
#238=ORIENTED_EDGE('',*,*,#182,.T.);
#239=ORIENTED_EDGE('',*,*,#179,.F.);
#240=ORIENTED_EDGE('',*,*,#180,.F.);
#241=ORIENTED_EDGE('',*,*,#182,.F.);
#242=ORIENTED_EDGE('',*,*,#183,.T.);
#243=ORIENTED_EDGE('',*,*,#184,.T.);
#244=ORIENTED_EDGE('',*,*,#185,.T.);
#245=ORIENTED_EDGE('',*,*,#162,.T.);
#246=ORIENTED_EDGE('',*,*,#185,.F.);
#247=ORIENTED_EDGE('',*,*,#183,.F.);
#248=ORIENTED_EDGE('',*,*,#184,.F.);
#249=ORIENTED_EDGE('',*,*,#186,.T.);
#250=ORIENTED_EDGE('',*,*,#187,.F.);
#251=ORIENTED_EDGE('',*,*,#188,.F.);
#252=ORIENTED_EDGE('',*,*,#186,.F.);
#253=ORIENTED_EDGE('',*,*,#189,.T.);
#254=ORIENTED_EDGE('',*,*,#190,.T.);
#255=ORIENTED_EDGE('',*,*,#187,.T.);
#256=ORIENTED_EDGE('',*,*,#188,.T.);
#257=ORIENTED_EDGE('',*,*,#190,.F.);
#258=ORIENTED_EDGE('',*,*,#181,.F.);
#259=ORIENTED_EDGE('',*,*,#189,.F.);
#260=ORIENTED_EDGE('',*,*,#175,.F.);
#261=ORIENTED_EDGE('',*,*,#191,.T.);
#262=ORIENTED_EDGE('',*,*,#159,.F.);
#263=ORIENTED_EDGE('',*,*,#191,.F.);
#264=ORIENTED_EDGE('',*,*,#176,.F.);
#265=ORIENTED_EDGE('',*,*,#192,.T.);
#266=ORIENTED_EDGE('',*,*,#160,.F.);
#267=ORIENTED_EDGE('',*,*,#192,.F.);
#268=ORIENTED_EDGE('',*,*,#177,.F.);
#269=ORIENTED_EDGE('',*,*,#193,.T.);
#270=ORIENTED_EDGE('',*,*,#161,.F.);
#271=ORIENTED_EDGE('',*,*,#193,.F.);
#272=TOROIDAL_SURFACE('',#318,19.6,0.1);
#273=TOROIDAL_SURFACE('',#330,20.4,0.1);
#274=TOROIDAL_SURFACE('',#339,20.4,0.1);
#275=TOROIDAL_SURFACE('',#347,16.5,0.1);
#276=TOROIDAL_SURFACE('',#353,12.4,0.1);
#277=TOROIDAL_SURFACE('',#360,12.4,0.1);
#278=ADVANCED_FACE('',(#53),#272,.T.);
#279=ADVANCED_FACE('',(#54,#39,#40,#41,#42),#49,.T.);
#280=ADVANCED_FACE('',(#55),#32,.T.);
#281=ADVANCED_FACE('',(#56),#273,.T.);
#282=ADVANCED_FACE('',(#57),#33,.T.);
#283=ADVANCED_FACE('',(#58,#43),#50,.F.);
#284=ADVANCED_FACE('',(#59),#274,.T.);
#285=ADVANCED_FACE('',(#60,#44,#45,#46,#47),#51,.T.);
#286=ADVANCED_FACE('',(#61),#275,.T.);
#287=ADVANCED_FACE('',(#62),#34,.F.);
#288=ADVANCED_FACE('',(#63),#276,.T.);
#289=ADVANCED_FACE('',(#64),#35,.F.);
#290=ADVANCED_FACE('',(#65),#277,.T.);
#291=ADVANCED_FACE('',(#66,#48),#52,.T.);
#292=ADVANCED_FACE('',(#67),#36,.F.);
#293=ADVANCED_FACE('',(#68),#37,.F.);
#294=ADVANCED_FACE('',(#69),#38,.F.);
#295=CLOSED_SHELL('',(#278,#279,#280,#281,#282,#283,#284,#285,#286,#287,
#288,#289,#290,#291,#292,#293,#294));
#296=DERIVED_UNIT_ELEMENT(#299,1.);
#297=DERIVED_UNIT_ELEMENT(#562,-3.);
#298=DIMENSIONAL_EXPONENTS(0.,1.,0.,0.,0.,0.,0.);
#299=(
CONVERSION_BASED_UNIT('gram',#301)
MASS_UNIT()
NAMED_UNIT(#298)
);
#300=(
MASS_UNIT()
NAMED_UNIT(*)
SI_UNIT(.KILO.,.GRAM.)
);
#301=MASS_MEASURE_WITH_UNIT(MASS_MEASURE(0.001),#300);
#302=DERIVED_UNIT((#296,#297));
#303=MEASURE_REPRESENTATION_ITEM('density measure',
POSITIVE_RATIO_MEASURE(1.2),#302);
#304=PROPERTY_DEFINITION_REPRESENTATION(#309,#306);
#305=PROPERTY_DEFINITION_REPRESENTATION(#310,#307);
#306=REPRESENTATION('material name',(#308),#559);
#307=REPRESENTATION('density',(#303),#559);
#308=DESCRIPTIVE_REPRESENTATION_ITEM('Polycarbonat, klar',
'Polycarbonat, klar');
#309=PROPERTY_DEFINITION('material property','material name',#569);
#310=PROPERTY_DEFINITION('material property','density of part',#569);
#311=DATE_TIME_ROLE('creation_date');
#312=APPLIED_DATE_AND_TIME_ASSIGNMENT(#313,#311,(#569));
#313=DATE_AND_TIME(#314,#315);
#314=CALENDAR_DATE(2020,4,12);
#315=LOCAL_TIME(0,0,0.,#316);
#316=COORDINATED_UNIVERSAL_TIME_OFFSET(0,0,.BEHIND.);
#317=AXIS2_PLACEMENT_3D('',#474,#367,#368);
#318=AXIS2_PLACEMENT_3D('',#475,#369,#370);
#319=AXIS2_PLACEMENT_3D('',#477,#371,#372);
#320=AXIS2_PLACEMENT_3D('',#479,#373,#374);
#321=AXIS2_PLACEMENT_3D('',#481,#375,#376);
#322=AXIS2_PLACEMENT_3D('',#482,#377,#378);
#323=AXIS2_PLACEMENT_3D('',#483,#379,#380);
#324=AXIS2_PLACEMENT_3D('',#485,#381,#382);
#325=AXIS2_PLACEMENT_3D('',#487,#383,#384);
#326=AXIS2_PLACEMENT_3D('',#489,#385,#386);
#327=AXIS2_PLACEMENT_3D('',#491,#387,#388);
#328=AXIS2_PLACEMENT_3D('',#492,#389,#390);
#329=AXIS2_PLACEMENT_3D('',#495,#392,#393);
#330=AXIS2_PLACEMENT_3D('',#496,#394,#395);
#331=AXIS2_PLACEMENT_3D('',#498,#396,#397);
#332=AXIS2_PLACEMENT_3D('',#500,#398,#399);
#333=AXIS2_PLACEMENT_3D('',#502,#400,#401);
#334=AXIS2_PLACEMENT_3D('',#503,#402,#403);
#335=AXIS2_PLACEMENT_3D('',#504,#404,#405);
#336=AXIS2_PLACEMENT_3D('',#508,#407,#408);
#337=AXIS2_PLACEMENT_3D('',#509,#409,#410);
#338=AXIS2_PLACEMENT_3D('',#510,#411,#412);
#339=AXIS2_PLACEMENT_3D('',#511,#413,#414);
#340=AXIS2_PLACEMENT_3D('',#513,#415,#416);
#341=AXIS2_PLACEMENT_3D('',#514,#417,#418);
#342=AXIS2_PLACEMENT_3D('',#515,#419,#420);
#343=AXIS2_PLACEMENT_3D('',#517,#421,#422);
#344=AXIS2_PLACEMENT_3D('',#519,#423,#424);
#345=AXIS2_PLACEMENT_3D('',#521,#425,#426);
#346=AXIS2_PLACEMENT_3D('',#523,#427,#428);
#347=AXIS2_PLACEMENT_3D('',#524,#429,#430);
#348=AXIS2_PLACEMENT_3D('',#526,#431,#432);
#349=AXIS2_PLACEMENT_3D('',#528,#433,#434);
#350=AXIS2_PLACEMENT_3D('',#529,#435,#436);
#351=AXIS2_PLACEMENT_3D('',#530,#437,#438);
#352=AXIS2_PLACEMENT_3D('',#532,#439,#440);
#353=AXIS2_PLACEMENT_3D('',#534,#442,#443);
#354=AXIS2_PLACEMENT_3D('',#537,#444,#445);
#355=AXIS2_PLACEMENT_3D('',#538,#446,#447);
#356=AXIS2_PLACEMENT_3D('',#539,#448,#449);
#357=AXIS2_PLACEMENT_3D('',#540,#450,#451);
#358=AXIS2_PLACEMENT_3D('',#544,#453,#454);
#359=AXIS2_PLACEMENT_3D('',#545,#455,#456);
#360=AXIS2_PLACEMENT_3D('',#546,#457,#458);
#361=AXIS2_PLACEMENT_3D('',#548,#459,#460);
#362=AXIS2_PLACEMENT_3D('',#549,#461,#462);
#363=AXIS2_PLACEMENT_3D('',#550,#463,#464);
#364=AXIS2_PLACEMENT_3D('',#551,#465,#466);
#365=AXIS2_PLACEMENT_3D('',#553,#468,#469);
#366=AXIS2_PLACEMENT_3D('',#555,#471,#472);
#367=DIRECTION('axis',(0.,0.,1.));
#368=DIRECTION('refdir',(1.,0.,0.));
#369=DIRECTION('center_axis',(0.,-1.,0.));
#370=DIRECTION('ref_axis',(0.,0.,-1.));
#371=DIRECTION('center_axis',(0.,1.,0.));
#372=DIRECTION('ref_axis',(-1.,0.,1.22464679914735E-16));
#373=DIRECTION('center_axis',(-1.,0.,-1.22464679914735E-16));
#374=DIRECTION('ref_axis',(-1.22464679914735E-16,0.,1.));
#375=DIRECTION('center_axis',(0.,-1.,0.));
#376=DIRECTION('ref_axis',(-1.,0.,1.22464679914735E-16));
#377=DIRECTION('center_axis',(0.,-1.,0.));
#378=DIRECTION('ref_axis',(-1.,0.,1.22464679914735E-16));
#379=DIRECTION('center_axis',(0.,-1.,0.));
#380=DIRECTION('ref_axis',(0.,0.,-1.));
#381=DIRECTION('center_axis',(0.,1.,0.));
#382=DIRECTION('ref_axis',(1.,0.,0.));
#383=DIRECTION('center_axis',(0.,1.,0.));
#384=DIRECTION('ref_axis',(1.,0.,0.));
#385=DIRECTION('center_axis',(0.,1.,0.));
#386=DIRECTION('ref_axis',(1.,0.,0.));
#387=DIRECTION('center_axis',(0.,-1.,0.));
#388=DIRECTION('ref_axis',(-1.,0.,1.22464679914735E-16));
#389=DIRECTION('center_axis',(0.,-1.,0.));
#390=DIRECTION('ref_axis',(1.,0.,0.));
#391=DIRECTION('',(0.,1.,0.));
#392=DIRECTION('center_axis',(0.,-1.,0.));
#393=DIRECTION('ref_axis',(1.,0.,0.));
#394=DIRECTION('center_axis',(0.,-1.,0.));
#395=DIRECTION('ref_axis',(0.,0.,-1.));
#396=DIRECTION('center_axis',(0.,1.,0.));
#397=DIRECTION('ref_axis',(-1.,0.,-1.22464679914735E-16));
#398=DIRECTION('center_axis',(-1.,0.,-1.22464679914735E-16));
#399=DIRECTION('ref_axis',(-1.22464679914735E-16,0.,1.));
#400=DIRECTION('center_axis',(0.,-1.,0.));
#401=DIRECTION('ref_axis',(-1.,0.,-1.22464679914735E-16));
#402=DIRECTION('center_axis',(0.,-1.,0.));
#403=DIRECTION('ref_axis',(-1.,0.,-1.22464679914735E-16));
#404=DIRECTION('center_axis',(0.,-1.,0.));
#405=DIRECTION('ref_axis',(1.,0.,0.));
#406=DIRECTION('',(0.,1.,0.));
#407=DIRECTION('center_axis',(0.,1.,0.));
#408=DIRECTION('ref_axis',(-1.,0.,-1.22464679914735E-16));
#409=DIRECTION('center_axis',(0.,1.,0.));
#410=DIRECTION('ref_axis',(-1.,0.,-1.22464679914735E-16));
#411=DIRECTION('center_axis',(0.,1.,0.));
#412=DIRECTION('ref_axis',(0.,0.,1.));
#413=DIRECTION('center_axis',(0.,1.,0.));
#414=DIRECTION('ref_axis',(0.,0.,1.));
#415=DIRECTION('center_axis',(0.,-1.,0.));
#416=DIRECTION('ref_axis',(-1.,0.,-1.22464679914735E-16));
#417=DIRECTION('center_axis',(-1.,0.,1.22464679914735E-16));
#418=DIRECTION('ref_axis',(-1.22464679914735E-16,0.,-1.));
#419=DIRECTION('center_axis',(0.,1.,0.));
#420=DIRECTION('ref_axis',(0.,0.,1.));
#421=DIRECTION('center_axis',(0.,1.,0.));
#422=DIRECTION('ref_axis',(-1.,0.,1.22464679914735E-16));
#423=DIRECTION('center_axis',(0.,-1.,0.));
#424=DIRECTION('ref_axis',(1.,0.,0.));
#425=DIRECTION('center_axis',(0.,-1.,0.));
#426=DIRECTION('ref_axis',(1.,0.,0.));
#427=DIRECTION('center_axis',(0.,-1.,0.));
#428=DIRECTION('ref_axis',(1.,0.,0.));
#429=DIRECTION('center_axis',(0.,-1.,0.));
#430=DIRECTION('ref_axis',(0.,0.,-1.));
#431=DIRECTION('center_axis',(-1.,0.,-1.22464679914735E-16));
#432=DIRECTION('ref_axis',(-1.22464679914735E-16,0.,1.));
#433=DIRECTION('center_axis',(0.,-1.,0.));
#434=DIRECTION('ref_axis',(-1.,0.,1.22464679914735E-16));
#435=DIRECTION('center_axis',(0.,-1.,0.));
#436=DIRECTION('ref_axis',(-1.,0.,1.22464679914735E-16));
#437=DIRECTION('center_axis',(0.,-1.,0.));
#438=DIRECTION('ref_axis',(1.,0.,0.));
#439=DIRECTION('center_axis',(0.,-1.,0.));
#440=DIRECTION('ref_axis',(1.,0.,0.));
#441=DIRECTION('',(0.,1.,0.));
#442=DIRECTION('center_axis',(0.,-1.,0.));
#443=DIRECTION('ref_axis',(0.,0.,-1.));
#444=DIRECTION('center_axis',(0.,1.,0.));
#445=DIRECTION('ref_axis',(-1.,0.,1.22464679914735E-16));
#446=DIRECTION('center_axis',(0.,1.,0.));
#447=DIRECTION('ref_axis',(-1.,0.,1.22464679914735E-16));
#448=DIRECTION('center_axis',(-1.,0.,-1.22464679914735E-16));
#449=DIRECTION('ref_axis',(-1.22464679914735E-16,0.,1.));
#450=DIRECTION('center_axis',(0.,-1.,0.));
#451=DIRECTION('ref_axis',(1.,0.,0.));
#452=DIRECTION('',(0.,1.,0.));
#453=DIRECTION('center_axis',(0.,-1.,0.));
#454=DIRECTION('ref_axis',(-1.,0.,1.22464679914735E-16));
#455=DIRECTION('center_axis',(0.,-1.,0.));
#456=DIRECTION('ref_axis',(-1.,0.,1.22464679914735E-16));
#457=DIRECTION('center_axis',(0.,-1.,0.));
#458=DIRECTION('ref_axis',(0.,0.,-1.));
#459=DIRECTION('center_axis',(0.,1.,0.));
#460=DIRECTION('ref_axis',(-1.,0.,1.22464679914735E-16));
#461=DIRECTION('center_axis',(-1.,0.,-1.22464679914735E-16));
#462=DIRECTION('ref_axis',(-1.22464679914735E-16,0.,1.));
#463=DIRECTION('center_axis',(0.,1.,0.));
#464=DIRECTION('ref_axis',(0.,0.,1.));
#465=DIRECTION('center_axis',(0.,1.,0.));
#466=DIRECTION('ref_axis',(1.,0.,0.));
#467=DIRECTION('',(0.,-1.,0.));
#468=DIRECTION('center_axis',(0.,1.,0.));
#469=DIRECTION('ref_axis',(1.,0.,0.));
#470=DIRECTION('',(0.,-1.,0.));
#471=DIRECTION('center_axis',(0.,1.,0.));
#472=DIRECTION('ref_axis',(1.,0.,0.));
#473=DIRECTION('',(0.,-1.,0.));
#474=CARTESIAN_POINT('',(0.,0.,0.));
#475=CARTESIAN_POINT('Origin',(0.,-17.1,0.));
#476=CARTESIAN_POINT('',(-2.40030772632881E-15,-17.2,19.6));
#477=CARTESIAN_POINT('Origin',(0.,-17.2,0.));
#478=CARTESIAN_POINT('',(-2.41255419432029E-15,-17.1,19.7));
#479=CARTESIAN_POINT('Origin',(-2.40030772632881E-15,-17.1,19.6));
#480=CARTESIAN_POINT('',(-19.7,-17.1,-2.41255419432029E-15));
#481=CARTESIAN_POINT('Origin',(0.,-17.1,0.));
#482=CARTESIAN_POINT('Origin',(0.,-17.1,0.));
#483=CARTESIAN_POINT('Origin',(12.3,-17.2,0.));
#484=CARTESIAN_POINT('',(-9.7835,-17.2,15.5884572681199));
#485=CARTESIAN_POINT('Origin',(-9.,-17.2,15.5884572681199));
#486=CARTESIAN_POINT('',(17.2165,-17.2,9.59510767131951E-17));
#487=CARTESIAN_POINT('Origin',(18.,-17.2,0.));
#488=CARTESIAN_POINT('',(-9.78350000000001,-17.2,-15.5884572681199));
#489=CARTESIAN_POINT('Origin',(-9.00000000000001,-17.2,-15.5884572681199));
#490=CARTESIAN_POINT('',(-1.51856203094272E-15,-17.2,12.4));
#491=CARTESIAN_POINT('Origin',(0.,-17.2,0.));
#492=CARTESIAN_POINT('Origin',(0.,-8.6,0.));
#493=CARTESIAN_POINT('',(-19.7,-2.7,-2.41255419432029E-15));
#494=CARTESIAN_POINT('',(-19.7,-8.6,-2.41255419432029E-15));
#495=CARTESIAN_POINT('Origin',(0.,-2.7,0.));
#496=CARTESIAN_POINT('Origin',(0.,-2.6,0.));
#497=CARTESIAN_POINT('',(-2.4982794702606E-15,-2.7,20.4));
#498=CARTESIAN_POINT('Origin',(0.,-2.7,0.));
#499=CARTESIAN_POINT('',(-2.51052593825207E-15,-2.6,20.5));
#500=CARTESIAN_POINT('Origin',(-2.4982794702606E-15,-2.6,20.4));
#501=CARTESIAN_POINT('',(-20.5,-2.6,-2.51052593825207E-15));
#502=CARTESIAN_POINT('Origin',(0.,-2.6,0.));
#503=CARTESIAN_POINT('Origin',(0.,-2.6,0.));
#504=CARTESIAN_POINT('Origin',(0.,7.39074343285431E-16,0.));
#505=CARTESIAN_POINT('',(-20.5,-0.0999999999999993,-2.51052593825207E-15));
#506=CARTESIAN_POINT('',(-20.5,7.39074343285431E-16,-2.51052593825207E-15));
#507=CARTESIAN_POINT('',(-2.51052593825207E-15,-0.0999999999999993,-20.5));
#508=CARTESIAN_POINT('Origin',(0.,-0.0999999999999993,0.));
#509=CARTESIAN_POINT('Origin',(0.,-0.0999999999999993,0.));
#510=CARTESIAN_POINT('Origin',(0.,-2.7,0.));
#511=CARTESIAN_POINT('Origin',(0.,-0.0999999999999993,0.));
#512=CARTESIAN_POINT('',(-2.4982794702606E-15,7.45931094670027E-16,-20.4));
#513=CARTESIAN_POINT('Origin',(0.,7.45931094670027E-16,0.));
#514=CARTESIAN_POINT('Origin',(-2.4982794702606E-15,-0.0999999999999993,
-20.4));
#515=CARTESIAN_POINT('Origin',(19.7,7.39074343285431E-16,0.));
#516=CARTESIAN_POINT('',(-2.02066721859313E-15,7.45931094670027E-16,16.5));
#517=CARTESIAN_POINT('Origin',(0.,7.45931094670027E-16,0.));
#518=CARTESIAN_POINT('',(-9.7835,5.55111512312578E-16,15.5884572681199));
#519=CARTESIAN_POINT('Origin',(-9.,5.55111512312578E-16,15.5884572681199));
#520=CARTESIAN_POINT('',(17.2165,5.55111512312578E-16,9.59510767131951E-17));
#521=CARTESIAN_POINT('Origin',(18.,5.55111512312578E-16,0.));
#522=CARTESIAN_POINT('',(-9.78350000000001,5.55111512312578E-16,-15.5884572681199));
#523=CARTESIAN_POINT('Origin',(-9.00000000000001,5.55111512312578E-16,-15.5884572681199));
#524=CARTESIAN_POINT('Origin',(0.,-0.099999999999999,0.));
#525=CARTESIAN_POINT('',(-2.00842075060166E-15,-0.099999999999999,16.4));
#526=CARTESIAN_POINT('Origin',(-2.02066721859313E-15,-0.099999999999999,
16.5));
#527=CARTESIAN_POINT('',(-16.4,-0.099999999999999,-2.00842075060166E-15));
#528=CARTESIAN_POINT('Origin',(0.,-0.099999999999999,0.));
#529=CARTESIAN_POINT('Origin',(0.,-0.099999999999999,0.));
#530=CARTESIAN_POINT('Origin',(0.,-7.975,0.));
#531=CARTESIAN_POINT('',(-16.4,-15.95,-2.00842075060166E-15));
#532=CARTESIAN_POINT('Origin',(0.,-15.95,0.));
#533=CARTESIAN_POINT('',(-16.4,-7.975,-2.00842075060166E-15));
#534=CARTESIAN_POINT('Origin',(0.,-17.1,0.));
#535=CARTESIAN_POINT('',(-1.50631556295124E-15,-17.1,12.3));
#536=CARTESIAN_POINT('',(-12.3,-17.1,-1.50631556295124E-15));
#537=CARTESIAN_POINT('Origin',(0.,-17.1,0.));
#538=CARTESIAN_POINT('Origin',(0.,-17.1,0.));
#539=CARTESIAN_POINT('Origin',(-1.51856203094272E-15,-17.1,12.4));
#540=CARTESIAN_POINT('Origin',(0.,-16.575,0.));
#541=CARTESIAN_POINT('',(-12.3,-16.05,-1.50631556295124E-15));
#542=CARTESIAN_POINT('',(-12.3,-16.575,-1.50631556295124E-15));
#543=CARTESIAN_POINT('',(-1.50631556295124E-15,-16.05,12.3));
#544=CARTESIAN_POINT('Origin',(0.,-16.05,0.));
#545=CARTESIAN_POINT('Origin',(0.,-16.05,0.));
#546=CARTESIAN_POINT('Origin',(0.,-16.05,0.));
#547=CARTESIAN_POINT('',(-1.51856203094272E-15,-15.95,12.4));
#548=CARTESIAN_POINT('Origin',(0.,-15.95,0.));
#549=CARTESIAN_POINT('Origin',(-1.51856203094272E-15,-16.05,12.4));
#550=CARTESIAN_POINT('Origin',(16.4,-15.95,0.));
#551=CARTESIAN_POINT('Origin',(-9.,-4.3,15.5884572681199));
#552=CARTESIAN_POINT('',(-9.7835,-4.3,15.5884572681199));
#553=CARTESIAN_POINT('Origin',(18.,-4.3,0.));
#554=CARTESIAN_POINT('',(17.2165,-4.3,9.59510767131951E-17));
#555=CARTESIAN_POINT('Origin',(-9.00000000000001,-4.3,-15.5884572681199));
#556=CARTESIAN_POINT('',(-9.78350000000001,-4.3,-15.5884572681199));
#557=UNCERTAINTY_MEASURE_WITH_UNIT(LENGTH_MEASURE(0.01),#561,
'DISTANCE_ACCURACY_VALUE',
'Maximum model space distance between geometric entities at asserted c
onnectivities');
#558=UNCERTAINTY_MEASURE_WITH_UNIT(LENGTH_MEASURE(0.01),#561,
'DISTANCE_ACCURACY_VALUE',
'Maximum model space distance between geometric entities at asserted c
onnectivities');
#559=(
GEOMETRIC_REPRESENTATION_CONTEXT(3)
GLOBAL_UNCERTAINTY_ASSIGNED_CONTEXT((#557))
GLOBAL_UNIT_ASSIGNED_CONTEXT((#561,#563,#564))
REPRESENTATION_CONTEXT('','3D')
);
#560=(
GEOMETRIC_REPRESENTATION_CONTEXT(3)
GLOBAL_UNCERTAINTY_ASSIGNED_CONTEXT((#558))
GLOBAL_UNIT_ASSIGNED_CONTEXT((#561,#563,#564))
REPRESENTATION_CONTEXT('','3D')
);
#561=(
LENGTH_UNIT()
NAMED_UNIT(*)
SI_UNIT(.MILLI.,.METRE.)
);
#562=(
LENGTH_UNIT()
NAMED_UNIT(*)
SI_UNIT(.CENTI.,.METRE.)
);
#563=(
NAMED_UNIT(*)
PLANE_ANGLE_UNIT()
SI_UNIT($,.RADIAN.)
);
#564=(
NAMED_UNIT(*)
SI_UNIT($,.STERADIAN.)
SOLID_ANGLE_UNIT()
);
#565=SHAPE_DEFINITION_REPRESENTATION(#566,#567);
#566=PRODUCT_DEFINITION_SHAPE('',$,#569);
#567=SHAPE_REPRESENTATION('',(#317),#559);
#568=PRODUCT_DEFINITION_CONTEXT('part definition',#573,'design');
#569=PRODUCT_DEFINITION('BGSC_Unterteil',
'BGSC_Unterteil_Alternative_V3',#570,#568);
#570=PRODUCT_DEFINITION_FORMATION('',$,#575);
#571=PRODUCT_RELATED_PRODUCT_CATEGORY('BGSC_Unterteil_Alternative_V3',
'BGSC_Unterteil_Alternative_V3',(#575));
#572=APPLICATION_PROTOCOL_DEFINITION('international standard',
'automotive_design',2009,#573);
#573=APPLICATION_CONTEXT(
'Core Data for Automotive Mechanical Design Process');
#574=PRODUCT_CONTEXT('part definition',#573,'mechanical');
#575=PRODUCT('BGSC_Unterteil','BGSC_Unterteil_Alternative_V3',$,(#574));
#576=PRESENTATION_STYLE_ASSIGNMENT((#578));
#577=PRESENTATION_STYLE_ASSIGNMENT((#579));
#578=SURFACE_STYLE_USAGE(.BOTH.,#584);
#579=SURFACE_STYLE_USAGE(.BOTH.,#585);
#580=SURFACE_STYLE_RENDERING_WITH_PROPERTIES($,#592,(#582));
#581=SURFACE_STYLE_RENDERING_WITH_PROPERTIES($,#593,(#583));
#582=SURFACE_STYLE_TRANSPARENT(0.53999999165535);
#583=SURFACE_STYLE_TRANSPARENT(0.);
#584=SURFACE_SIDE_STYLE('',(#586,#580));
#585=SURFACE_SIDE_STYLE('',(#587,#581));
#586=SURFACE_STYLE_FILL_AREA(#588);
#587=SURFACE_STYLE_FILL_AREA(#589);
#588=FILL_AREA_STYLE('',(#590));
#589=FILL_AREA_STYLE('',(#591));
#590=FILL_AREA_STYLE_COLOUR('',#592);
#591=FILL_AREA_STYLE_COLOUR('',#593);
#592=COLOUR_RGB('',0.8,0.8,0.8);
#593=COLOUR_RGB('',0.411764705882353,0.411764705882353,0.411764705882353);
ENDSEC;
END-ISO-10303-21;
