ISO-10303-21;
HEADER;
/* Generated by software containing ST-Developer
 * from STEP Tools, Inc. (www.steptools.com) 
 */

FILE_DESCRIPTION(
/* description */ (''),
/* implementation_level */ '2;1');

FILE_NAME(
/* name */ 'Zwischenteil.stp',
/* time_stamp */ '2025-10-02T14:44:01+02:00',
/* author */ ('station1'),
/* organization */ (''),
/* preprocessor_version */ 'ST-DEVELOPER v20.1',
/* originating_system */ 'Autodesk Inventor 2026',
/* authorisation */ '');

FILE_SCHEMA (('AUTOMOTIVE_DESIGN { 1 0 10303 214 3 1 1 }'));
ENDSEC;

DATA;
#10=MECHANICAL_DESIGN_GEOMETRIC_PRESENTATION_REPRESENTATION('',(#13),#395);
#11=SHAPE_REPRESENTATION_RELATIONSHIP('SRR','None',#402,#12);
#12=ADVANCED_BREP_SHAPE_REPRESENTATION('',(#14),#394);
#13=STYLED_ITEM('',(#411),#14);
#14=MANIFOLD_SOLID_BREP('Volumenk\X\F6rper1',#206);
#15=FACE_BOUND('',#54,.T.);
#16=FACE_BOUND('',#55,.T.);
#17=FACE_BOUND('',#56,.T.);
#18=FACE_BOUND('',#57,.T.);
#19=FACE_BOUND('',#60,.T.);
#20=FACE_BOUND('',#61,.T.);
#21=FACE_BOUND('',#62,.T.);
#22=FACE_BOUND('',#63,.T.);
#23=PLANE('',#237);
#24=PLANE('',#245);
#25=LINE('',#348,#30);
#26=LINE('',#382,#31);
#27=LINE('',#387,#32);
#28=LINE('',#389,#33);
#29=LINE('',#391,#34);
#30=VECTOR('',#278,20.5);
#31=VECTOR('',#319,16.4);
#32=VECTOR('',#328,1.25);
#33=VECTOR('',#331,1.25);
#34=VECTOR('',#334,1.25);
#35=CYLINDRICAL_SURFACE('',#234,20.5);
#36=CYLINDRICAL_SURFACE('',#254,16.4);
#37=CYLINDRICAL_SURFACE('',#259,1.25);
#38=CYLINDRICAL_SURFACE('',#260,1.25);
#39=CYLINDRICAL_SURFACE('',#261,1.25);
#40=FACE_OUTER_BOUND('',#51,.T.);
#41=FACE_OUTER_BOUND('',#52,.T.);
#42=FACE_OUTER_BOUND('',#53,.T.);
#43=FACE_OUTER_BOUND('',#58,.T.);
#44=FACE_OUTER_BOUND('',#59,.T.);
#45=FACE_OUTER_BOUND('',#64,.T.);
#46=FACE_OUTER_BOUND('',#65,.T.);
#47=FACE_OUTER_BOUND('',#66,.T.);
#48=FACE_OUTER_BOUND('',#67,.T.);
#49=FACE_OUTER_BOUND('',#68,.T.);
#50=FACE_OUTER_BOUND('',#69,.T.);
#51=EDGE_LOOP('',(#137,#138,#139,#140,#141));
#52=EDGE_LOOP('',(#142,#143,#144,#145,#146,#147));
#53=EDGE_LOOP('',(#148));
#54=EDGE_LOOP('',(#149));
#55=EDGE_LOOP('',(#150));
#56=EDGE_LOOP('',(#151));
#57=EDGE_LOOP('',(#152));
#58=EDGE_LOOP('',(#153,#154,#155,#156,#157));
#59=EDGE_LOOP('',(#158));
#60=EDGE_LOOP('',(#159));
#61=EDGE_LOOP('',(#160));
#62=EDGE_LOOP('',(#161));
#63=EDGE_LOOP('',(#162));
#64=EDGE_LOOP('',(#163,#164,#165,#166,#167));
#65=EDGE_LOOP('',(#168,#169,#170,#171,#172,#173));
#66=EDGE_LOOP('',(#174,#175,#176,#177,#178));
#67=EDGE_LOOP('',(#179,#180,#181,#182));
#68=EDGE_LOOP('',(#183,#184,#185,#186));
#69=EDGE_LOOP('',(#187,#188,#189,#190));
#70=CIRCLE('',#230,20.4);
#71=CIRCLE('',#231,0.1);
#72=CIRCLE('',#232,20.5);
#73=CIRCLE('',#233,20.5);
#74=CIRCLE('',#235,20.5);
#75=CIRCLE('',#236,20.5);
#76=CIRCLE('',#238,16.5);
#77=CIRCLE('',#239,1.25);
#78=CIRCLE('',#240,1.25);
#79=CIRCLE('',#241,1.25);
#80=CIRCLE('',#243,20.4);
#81=CIRCLE('',#244,0.1);
#82=CIRCLE('',#246,16.5);
#83=CIRCLE('',#247,1.25);
#84=CIRCLE('',#248,1.25);
#85=CIRCLE('',#249,1.25);
#86=CIRCLE('',#251,16.4);
#87=CIRCLE('',#252,0.1);
#88=CIRCLE('',#253,16.4);
#89=CIRCLE('',#255,16.4);
#90=CIRCLE('',#256,16.4);
#91=CIRCLE('',#258,0.1);
#92=VERTEX_POINT('',#337);
#93=VERTEX_POINT('',#339);
#94=VERTEX_POINT('',#341);
#95=VERTEX_POINT('',#345);
#96=VERTEX_POINT('',#346);
#97=VERTEX_POINT('',#351);
#98=VERTEX_POINT('',#353);
#99=VERTEX_POINT('',#355);
#100=VERTEX_POINT('',#357);
#101=VERTEX_POINT('',#360);
#102=VERTEX_POINT('',#364);
#103=VERTEX_POINT('',#366);
#104=VERTEX_POINT('',#368);
#105=VERTEX_POINT('',#370);
#106=VERTEX_POINT('',#373);
#107=VERTEX_POINT('',#374);
#108=VERTEX_POINT('',#379);
#109=VERTEX_POINT('',#380);
#110=EDGE_CURVE('',#92,#92,#70,.T.);
#111=EDGE_CURVE('',#92,#93,#71,.T.);
#112=EDGE_CURVE('',#93,#94,#72,.T.);
#113=EDGE_CURVE('',#94,#93,#73,.T.);
#114=EDGE_CURVE('',#95,#96,#74,.T.);
#115=EDGE_CURVE('',#95,#94,#25,.T.);
#116=EDGE_CURVE('',#96,#95,#75,.T.);
#117=EDGE_CURVE('',#97,#97,#76,.T.);
#118=EDGE_CURVE('',#98,#98,#77,.T.);
#119=EDGE_CURVE('',#99,#99,#78,.T.);
#120=EDGE_CURVE('',#100,#100,#79,.T.);
#121=EDGE_CURVE('',#101,#101,#80,.T.);
#122=EDGE_CURVE('',#101,#96,#81,.T.);
#123=EDGE_CURVE('',#102,#102,#82,.T.);
#124=EDGE_CURVE('',#103,#103,#83,.T.);
#125=EDGE_CURVE('',#104,#104,#84,.T.);
#126=EDGE_CURVE('',#105,#105,#85,.T.);
#127=EDGE_CURVE('',#106,#107,#86,.T.);
#128=EDGE_CURVE('',#107,#102,#87,.T.);
#129=EDGE_CURVE('',#107,#106,#88,.T.);
#130=EDGE_CURVE('',#108,#109,#89,.T.);
#131=EDGE_CURVE('',#108,#106,#26,.T.);
#132=EDGE_CURVE('',#109,#108,#90,.T.);
#133=EDGE_CURVE('',#97,#109,#91,.T.);
#134=EDGE_CURVE('',#98,#103,#27,.T.);
#135=EDGE_CURVE('',#99,#104,#28,.T.);
#136=EDGE_CURVE('',#100,#105,#29,.T.);
#137=ORIENTED_EDGE('',*,*,#110,.T.);
#138=ORIENTED_EDGE('',*,*,#111,.T.);
#139=ORIENTED_EDGE('',*,*,#112,.T.);
#140=ORIENTED_EDGE('',*,*,#113,.T.);
#141=ORIENTED_EDGE('',*,*,#111,.F.);
#142=ORIENTED_EDGE('',*,*,#114,.F.);
#143=ORIENTED_EDGE('',*,*,#115,.T.);
#144=ORIENTED_EDGE('',*,*,#112,.F.);
#145=ORIENTED_EDGE('',*,*,#113,.F.);
#146=ORIENTED_EDGE('',*,*,#115,.F.);
#147=ORIENTED_EDGE('',*,*,#116,.F.);
#148=ORIENTED_EDGE('',*,*,#110,.F.);
#149=ORIENTED_EDGE('',*,*,#117,.F.);
#150=ORIENTED_EDGE('',*,*,#118,.T.);
#151=ORIENTED_EDGE('',*,*,#119,.T.);
#152=ORIENTED_EDGE('',*,*,#120,.T.);
#153=ORIENTED_EDGE('',*,*,#121,.T.);
#154=ORIENTED_EDGE('',*,*,#122,.T.);
#155=ORIENTED_EDGE('',*,*,#116,.T.);
#156=ORIENTED_EDGE('',*,*,#114,.T.);
#157=ORIENTED_EDGE('',*,*,#122,.F.);
#158=ORIENTED_EDGE('',*,*,#121,.F.);
#159=ORIENTED_EDGE('',*,*,#123,.F.);
#160=ORIENTED_EDGE('',*,*,#124,.T.);
#161=ORIENTED_EDGE('',*,*,#125,.T.);
#162=ORIENTED_EDGE('',*,*,#126,.T.);
#163=ORIENTED_EDGE('',*,*,#127,.T.);
#164=ORIENTED_EDGE('',*,*,#128,.T.);
#165=ORIENTED_EDGE('',*,*,#123,.T.);
#166=ORIENTED_EDGE('',*,*,#128,.F.);
#167=ORIENTED_EDGE('',*,*,#129,.T.);
#168=ORIENTED_EDGE('',*,*,#130,.F.);
#169=ORIENTED_EDGE('',*,*,#131,.T.);
#170=ORIENTED_EDGE('',*,*,#129,.F.);
#171=ORIENTED_EDGE('',*,*,#127,.F.);
#172=ORIENTED_EDGE('',*,*,#131,.F.);
#173=ORIENTED_EDGE('',*,*,#132,.F.);
#174=ORIENTED_EDGE('',*,*,#117,.T.);
#175=ORIENTED_EDGE('',*,*,#133,.T.);
#176=ORIENTED_EDGE('',*,*,#132,.T.);
#177=ORIENTED_EDGE('',*,*,#130,.T.);
#178=ORIENTED_EDGE('',*,*,#133,.F.);
#179=ORIENTED_EDGE('',*,*,#118,.F.);
#180=ORIENTED_EDGE('',*,*,#134,.T.);
#181=ORIENTED_EDGE('',*,*,#124,.F.);
#182=ORIENTED_EDGE('',*,*,#134,.F.);
#183=ORIENTED_EDGE('',*,*,#119,.F.);
#184=ORIENTED_EDGE('',*,*,#135,.T.);
#185=ORIENTED_EDGE('',*,*,#125,.F.);
#186=ORIENTED_EDGE('',*,*,#135,.F.);
#187=ORIENTED_EDGE('',*,*,#120,.F.);
#188=ORIENTED_EDGE('',*,*,#136,.T.);
#189=ORIENTED_EDGE('',*,*,#126,.F.);
#190=ORIENTED_EDGE('',*,*,#136,.F.);
#191=TOROIDAL_SURFACE('',#229,20.4,0.1);
#192=TOROIDAL_SURFACE('',#242,20.4,0.1);
#193=TOROIDAL_SURFACE('',#250,16.5,0.1);
#194=TOROIDAL_SURFACE('',#257,16.5,0.1);
#195=ADVANCED_FACE('',(#40),#191,.T.);
#196=ADVANCED_FACE('',(#41),#35,.T.);
#197=ADVANCED_FACE('',(#42,#15,#16,#17,#18),#23,.T.);
#198=ADVANCED_FACE('',(#43),#192,.T.);
#199=ADVANCED_FACE('',(#44,#19,#20,#21,#22),#24,.F.);
#200=ADVANCED_FACE('',(#45),#193,.T.);
#201=ADVANCED_FACE('',(#46),#36,.F.);
#202=ADVANCED_FACE('',(#47),#194,.T.);
#203=ADVANCED_FACE('',(#48),#37,.F.);
#204=ADVANCED_FACE('',(#49),#38,.F.);
#205=ADVANCED_FACE('',(#50),#39,.F.);
#206=CLOSED_SHELL('',(#195,#196,#197,#198,#199,#200,#201,#202,#203,#204,
#205));
#207=DERIVED_UNIT_ELEMENT(#210,1.);
#208=DERIVED_UNIT_ELEMENT(#397,-3.);
#209=DIMENSIONAL_EXPONENTS(0.,1.,0.,0.,0.,0.,0.);
#210=(
CONVERSION_BASED_UNIT('gram',#212)
MASS_UNIT()
NAMED_UNIT(#209)
);
#211=(
MASS_UNIT()
NAMED_UNIT(*)
SI_UNIT(.KILO.,.GRAM.)
);
#212=MASS_MEASURE_WITH_UNIT(MASS_MEASURE(0.001),#211);
#213=DERIVED_UNIT((#207,#208));
#214=MEASURE_REPRESENTATION_ITEM('density measure',
POSITIVE_RATIO_MEASURE(1.2),#213);
#215=PROPERTY_DEFINITION_REPRESENTATION(#220,#217);
#216=PROPERTY_DEFINITION_REPRESENTATION(#221,#218);
#217=REPRESENTATION('material name',(#219),#394);
#218=REPRESENTATION('density',(#214),#394);
#219=DESCRIPTIVE_REPRESENTATION_ITEM('Polycarbonat, klar',
'Polycarbonat, klar');
#220=PROPERTY_DEFINITION('material property','material name',#404);
#221=PROPERTY_DEFINITION('material property','density of part',#404);
#222=DATE_TIME_ROLE('creation_date');
#223=APPLIED_DATE_AND_TIME_ASSIGNMENT(#224,#222,(#404));
#224=DATE_AND_TIME(#225,#226);
#225=CALENDAR_DATE(2021,28,1);
#226=LOCAL_TIME(0,0,0.,#227);
#227=COORDINATED_UNIVERSAL_TIME_OFFSET(0,0,.BEHIND.);
#228=AXIS2_PLACEMENT_3D('',#335,#262,#263);
#229=AXIS2_PLACEMENT_3D('',#336,#264,#265);
#230=AXIS2_PLACEMENT_3D('',#338,#266,#267);
#231=AXIS2_PLACEMENT_3D('',#340,#268,#269);
#232=AXIS2_PLACEMENT_3D('',#342,#270,#271);
#233=AXIS2_PLACEMENT_3D('',#343,#272,#273);
#234=AXIS2_PLACEMENT_3D('',#344,#274,#275);
#235=AXIS2_PLACEMENT_3D('',#347,#276,#277);
#236=AXIS2_PLACEMENT_3D('',#349,#279,#280);
#237=AXIS2_PLACEMENT_3D('',#350,#281,#282);
#238=AXIS2_PLACEMENT_3D('',#352,#283,#284);
#239=AXIS2_PLACEMENT_3D('',#354,#285,#286);
#240=AXIS2_PLACEMENT_3D('',#356,#287,#288);
#241=AXIS2_PLACEMENT_3D('',#358,#289,#290);
#242=AXIS2_PLACEMENT_3D('',#359,#291,#292);
#243=AXIS2_PLACEMENT_3D('',#361,#293,#294);
#244=AXIS2_PLACEMENT_3D('',#362,#295,#296);
#245=AXIS2_PLACEMENT_3D('',#363,#297,#298);
#246=AXIS2_PLACEMENT_3D('',#365,#299,#300);
#247=AXIS2_PLACEMENT_3D('',#367,#301,#302);
#248=AXIS2_PLACEMENT_3D('',#369,#303,#304);
#249=AXIS2_PLACEMENT_3D('',#371,#305,#306);
#250=AXIS2_PLACEMENT_3D('',#372,#307,#308);
#251=AXIS2_PLACEMENT_3D('',#375,#309,#310);
#252=AXIS2_PLACEMENT_3D('',#376,#311,#312);
#253=AXIS2_PLACEMENT_3D('',#377,#313,#314);
#254=AXIS2_PLACEMENT_3D('',#378,#315,#316);
#255=AXIS2_PLACEMENT_3D('',#381,#317,#318);
#256=AXIS2_PLACEMENT_3D('',#383,#320,#321);
#257=AXIS2_PLACEMENT_3D('',#384,#322,#323);
#258=AXIS2_PLACEMENT_3D('',#385,#324,#325);
#259=AXIS2_PLACEMENT_3D('',#386,#326,#327);
#260=AXIS2_PLACEMENT_3D('',#388,#329,#330);
#261=AXIS2_PLACEMENT_3D('',#390,#332,#333);
#262=DIRECTION('axis',(0.,0.,1.));
#263=DIRECTION('refdir',(1.,0.,0.));
#264=DIRECTION('center_axis',(0.,1.,0.));
#265=DIRECTION('ref_axis',(0.,0.,1.));
#266=DIRECTION('center_axis',(0.,-1.,0.));
#267=DIRECTION('ref_axis',(-1.,0.,-1.22464679914735E-16));
#268=DIRECTION('center_axis',(-1.,0.,1.22464679914735E-16));
#269=DIRECTION('ref_axis',(-1.22464679914735E-16,0.,-1.));
#270=DIRECTION('center_axis',(0.,1.,0.));
#271=DIRECTION('ref_axis',(-1.,0.,-1.22464679914735E-16));
#272=DIRECTION('center_axis',(0.,1.,0.));
#273=DIRECTION('ref_axis',(-1.,0.,-1.22464679914735E-16));
#274=DIRECTION('center_axis',(0.,-1.,0.));
#275=DIRECTION('ref_axis',(1.,0.,0.));
#276=DIRECTION('center_axis',(0.,-1.,0.));
#277=DIRECTION('ref_axis',(-1.,0.,-1.22464679914735E-16));
#278=DIRECTION('',(0.,1.,0.));
#279=DIRECTION('center_axis',(0.,-1.,0.));
#280=DIRECTION('ref_axis',(-1.,0.,-1.22464679914735E-16));
#281=DIRECTION('center_axis',(0.,1.,0.));
#282=DIRECTION('ref_axis',(0.,0.,1.));
#283=DIRECTION('center_axis',(0.,1.,0.));
#284=DIRECTION('ref_axis',(1.,0.,0.));
#285=DIRECTION('center_axis',(0.,-1.,0.));
#286=DIRECTION('ref_axis',(1.,0.,0.));
#287=DIRECTION('center_axis',(0.,-1.,0.));
#288=DIRECTION('ref_axis',(1.,0.,0.));
#289=DIRECTION('center_axis',(0.,-1.,0.));
#290=DIRECTION('ref_axis',(1.,0.,0.));
#291=DIRECTION('center_axis',(0.,-1.,0.));
#292=DIRECTION('ref_axis',(0.,0.,-1.));
#293=DIRECTION('center_axis',(0.,1.,0.));
#294=DIRECTION('ref_axis',(-1.,0.,-1.22464679914735E-16));
#295=DIRECTION('center_axis',(-1.,0.,-1.22464679914735E-16));
#296=DIRECTION('ref_axis',(-1.22464679914735E-16,0.,1.));
#297=DIRECTION('center_axis',(0.,1.,0.));
#298=DIRECTION('ref_axis',(0.,0.,1.));
#299=DIRECTION('center_axis',(0.,-1.,0.));
#300=DIRECTION('ref_axis',(1.,0.,0.));
#301=DIRECTION('center_axis',(0.,1.,0.));
#302=DIRECTION('ref_axis',(1.,0.,0.));
#303=DIRECTION('center_axis',(0.,1.,0.));
#304=DIRECTION('ref_axis',(1.,0.,0.));
#305=DIRECTION('center_axis',(0.,1.,0.));
#306=DIRECTION('ref_axis',(1.,0.,0.));
#307=DIRECTION('center_axis',(0.,-1.,0.));
#308=DIRECTION('ref_axis',(0.,0.,-1.));
#309=DIRECTION('center_axis',(0.,1.,0.));
#310=DIRECTION('ref_axis',(1.,0.,0.));
#311=DIRECTION('center_axis',(-1.,0.,-1.22464679914735E-16));
#312=DIRECTION('ref_axis',(-1.22464679914735E-16,0.,1.));
#313=DIRECTION('center_axis',(0.,1.,0.));
#314=DIRECTION('ref_axis',(1.,0.,0.));
#315=DIRECTION('center_axis',(0.,1.,0.));
#316=DIRECTION('ref_axis',(1.,0.,0.));
#317=DIRECTION('center_axis',(0.,-1.,0.));
#318=DIRECTION('ref_axis',(1.,0.,0.));
#319=DIRECTION('',(0.,-1.,0.));
#320=DIRECTION('center_axis',(0.,-1.,0.));
#321=DIRECTION('ref_axis',(1.,0.,0.));
#322=DIRECTION('center_axis',(0.,-1.,0.));
#323=DIRECTION('ref_axis',(0.,0.,-1.));
#324=DIRECTION('center_axis',(-1.,0.,-1.22464679914735E-16));
#325=DIRECTION('ref_axis',(-1.22464679914735E-16,0.,1.));
#326=DIRECTION('center_axis',(0.,1.,0.));
#327=DIRECTION('ref_axis',(1.,0.,0.));
#328=DIRECTION('',(0.,-1.,0.));
#329=DIRECTION('center_axis',(0.,1.,0.));
#330=DIRECTION('ref_axis',(1.,0.,0.));
#331=DIRECTION('',(0.,-1.,0.));
#332=DIRECTION('center_axis',(0.,1.,0.));
#333=DIRECTION('ref_axis',(1.,0.,0.));
#334=DIRECTION('',(0.,-1.,0.));
#335=CARTESIAN_POINT('',(0.,0.,0.));
#336=CARTESIAN_POINT('Origin',(0.,7.08,0.));
#337=CARTESIAN_POINT('',(-2.4982794702606E-15,7.18,-20.4));
#338=CARTESIAN_POINT('Origin',(0.,7.18,0.));
#339=CARTESIAN_POINT('',(-2.51052593825207E-15,7.08,-20.5));
#340=CARTESIAN_POINT('Origin',(-2.4982794702606E-15,7.08,-20.4));
#341=CARTESIAN_POINT('',(-20.5,7.08,-2.51052593825207E-15));
#342=CARTESIAN_POINT('Origin',(0.,7.08,0.));
#343=CARTESIAN_POINT('Origin',(0.,7.08,0.));
#344=CARTESIAN_POINT('Origin',(0.,7.18,0.));
#345=CARTESIAN_POINT('',(-20.5,0.1,-2.51052593825207E-15));
#346=CARTESIAN_POINT('',(-2.51052593825207E-15,0.1,20.5));
#347=CARTESIAN_POINT('Origin',(0.,0.1,0.));
#348=CARTESIAN_POINT('',(-20.5,7.18,-2.51052593825207E-15));
#349=CARTESIAN_POINT('Origin',(0.,0.1,0.));
#350=CARTESIAN_POINT('Origin',(0.,7.18,0.));
#351=CARTESIAN_POINT('',(-2.02066721859313E-15,7.18,16.5));
#352=CARTESIAN_POINT('Origin',(0.,7.18,0.));
#353=CARTESIAN_POINT('',(7.75000000000001,7.18,-15.5884572681199));
#354=CARTESIAN_POINT('Origin',(9.00000000000001,7.18,-15.5884572681199));
#355=CARTESIAN_POINT('',(-19.25,7.18,1.53080849893419E-16));
#356=CARTESIAN_POINT('Origin',(-18.,7.18,0.));
#357=CARTESIAN_POINT('',(7.75,7.18,15.5884572681199));
#358=CARTESIAN_POINT('Origin',(9.,7.18,15.5884572681199));
#359=CARTESIAN_POINT('Origin',(0.,0.1,0.));
#360=CARTESIAN_POINT('',(-2.4982794702606E-15,0.,20.4));
#361=CARTESIAN_POINT('Origin',(0.,0.,0.));
#362=CARTESIAN_POINT('Origin',(-2.4982794702606E-15,0.1,20.4));
#363=CARTESIAN_POINT('Origin',(0.,0.,0.));
#364=CARTESIAN_POINT('',(-2.02066721859313E-15,0.,16.5));
#365=CARTESIAN_POINT('Origin',(0.,0.,0.));
#366=CARTESIAN_POINT('',(7.75000000000001,0.,-15.5884572681199));
#367=CARTESIAN_POINT('Origin',(9.00000000000001,0.,-15.5884572681199));
#368=CARTESIAN_POINT('',(-19.25,0.,1.53080849893419E-16));
#369=CARTESIAN_POINT('Origin',(-18.,0.,0.));
#370=CARTESIAN_POINT('',(7.75,0.,15.5884572681199));
#371=CARTESIAN_POINT('Origin',(9.,0.,15.5884572681199));
#372=CARTESIAN_POINT('Origin',(0.,0.1,0.));
#373=CARTESIAN_POINT('',(-16.4,0.1,2.00842075060166E-15));
#374=CARTESIAN_POINT('',(-2.00842075060166E-15,0.1,16.4));
#375=CARTESIAN_POINT('Origin',(0.,0.1,0.));
#376=CARTESIAN_POINT('Origin',(-2.02066721859313E-15,0.1,16.5));
#377=CARTESIAN_POINT('Origin',(0.,0.1,0.));
#378=CARTESIAN_POINT('Origin',(0.,0.,0.));
#379=CARTESIAN_POINT('',(-16.4,7.08,-2.00842075060166E-15));
#380=CARTESIAN_POINT('',(-2.00842075060166E-15,7.08,16.4));
#381=CARTESIAN_POINT('Origin',(0.,7.08,0.));
#382=CARTESIAN_POINT('',(-16.4,0.,2.00842075060166E-15));
#383=CARTESIAN_POINT('Origin',(0.,7.08,0.));
#384=CARTESIAN_POINT('Origin',(0.,7.08,0.));
#385=CARTESIAN_POINT('Origin',(-2.02066721859313E-15,7.08,16.5));
#386=CARTESIAN_POINT('Origin',(9.00000000000001,-49.0007119926403,-15.5884572681199));
#387=CARTESIAN_POINT('',(7.75000000000001,-49.0007119926403,-15.5884572681199));
#388=CARTESIAN_POINT('Origin',(-18.,-49.0007119926403,0.));
#389=CARTESIAN_POINT('',(-19.25,-49.0007119926403,1.53080849893419E-16));
#390=CARTESIAN_POINT('Origin',(9.,-49.0007119926403,15.5884572681199));
#391=CARTESIAN_POINT('',(7.75,-49.0007119926403,15.5884572681199));
#392=UNCERTAINTY_MEASURE_WITH_UNIT(LENGTH_MEASURE(0.01),#396,
'DISTANCE_ACCURACY_VALUE',
'Maximum model space distance between geometric entities at asserted c
onnectivities');
#393=UNCERTAINTY_MEASURE_WITH_UNIT(LENGTH_MEASURE(0.01),#396,
'DISTANCE_ACCURACY_VALUE',
'Maximum model space distance between geometric entities at asserted c
onnectivities');
#394=(
GEOMETRIC_REPRESENTATION_CONTEXT(3)
GLOBAL_UNCERTAINTY_ASSIGNED_CONTEXT((#392))
GLOBAL_UNIT_ASSIGNED_CONTEXT((#396,#398,#399))
REPRESENTATION_CONTEXT('','3D')
);
#395=(
GEOMETRIC_REPRESENTATION_CONTEXT(3)
GLOBAL_UNCERTAINTY_ASSIGNED_CONTEXT((#393))
GLOBAL_UNIT_ASSIGNED_CONTEXT((#396,#398,#399))
REPRESENTATION_CONTEXT('','3D')
);
#396=(
LENGTH_UNIT()
NAMED_UNIT(*)
SI_UNIT(.MILLI.,.METRE.)
);
#397=(
LENGTH_UNIT()
NAMED_UNIT(*)
SI_UNIT(.CENTI.,.METRE.)
);
#398=(
NAMED_UNIT(*)
PLANE_ANGLE_UNIT()
SI_UNIT($,.RADIAN.)
);
#399=(
NAMED_UNIT(*)
SI_UNIT($,.STERADIAN.)
SOLID_ANGLE_UNIT()
);
#400=SHAPE_DEFINITION_REPRESENTATION(#401,#402);
#401=PRODUCT_DEFINITION_SHAPE('',$,#404);
#402=SHAPE_REPRESENTATION('',(#228),#394);
#403=PRODUCT_DEFINITION_CONTEXT('part definition',#408,'design');
#404=PRODUCT_DEFINITION('BGSC_Zwischenteil',
'BGSC_Zwischenteil_Alternative',#405,#403);
#405=PRODUCT_DEFINITION_FORMATION('',$,#410);
#406=PRODUCT_RELATED_PRODUCT_CATEGORY('BGSC_Zwischenteil_Alternative',
'BGSC_Zwischenteil_Alternative',(#410));
#407=APPLICATION_PROTOCOL_DEFINITION('international standard',
'automotive_design',2009,#408);
#408=APPLICATION_CONTEXT(
'Core Data for Automotive Mechanical Design Process');
#409=PRODUCT_CONTEXT('part definition',#408,'mechanical');
#410=PRODUCT('BGSC_Zwischenteil','BGSC_Zwischenteil_Alternative',$,(#409));
#411=PRESENTATION_STYLE_ASSIGNMENT((#412));
#412=SURFACE_STYLE_USAGE(.BOTH.,#415);
#413=SURFACE_STYLE_RENDERING_WITH_PROPERTIES($,#419,(#414));
#414=SURFACE_STYLE_TRANSPARENT(0.53999999165535);
#415=SURFACE_SIDE_STYLE('',(#416,#413));
#416=SURFACE_STYLE_FILL_AREA(#417);
#417=FILL_AREA_STYLE('',(#418));
#418=FILL_AREA_STYLE_COLOUR('',#419);
#419=COLOUR_RGB('',0.8,0.8,0.8);
ENDSEC;
END-ISO-10303-21;
